<svg width="14" height="16" viewBox="0 0 14 16" fill="none" xmlns="http://www.w3.org/2000/svg">
<path d="M4.7813 13.2132H9.21871C9.03973 14.2768 8.11449 15.0871 7 15.0871C5.88551 15.0871 4.96028 14.2768 4.7813 13.2132ZM7 0.463867C10.1066 0.463867 12.625 2.98227 12.625 6.08887V9.08775L13.6888 11.4578C13.7299 11.5496 13.7512 11.649 13.7512 11.7496C13.7512 12.1431 13.4322 12.4621 13.0387 12.4621H0.964141C0.863803 12.4621 0.764596 12.4409 0.673016 12.3999C0.31386 12.2391 0.153048 11.8176 0.313832 11.4584L1.37501 9.08802L1.37509 6.07918L1.3784 5.89174C1.4827 2.8687 3.96691 0.463867 7 0.463867Z" fill="#A1A4BD"/>
</svg>
