<svg width="16" height="16" viewBox="0 0 16 16" fill="none" xmlns="http://www.w3.org/2000/svg">
<path d="M8 0.479492C12.1421 0.479492 15.5 3.83736 15.5 7.97949C15.5 12.1216 12.1421 15.4795 8 15.4795C6.76967 15.4795 5.58137 15.1824 4.51683 14.6232L1.29904 15.461C0.958324 15.5497 0.610178 15.3455 0.521432 15.0048C0.493989 14.8994 0.493986 14.7888 0.52141 14.6835L1.35867 11.4672C0.797899 10.4015 0.5 9.21158 0.5 7.97949C0.5 3.83736 3.85786 0.479492 8 0.479492ZM8.93878 8.72949H5.5625L5.48617 8.73463C5.21161 8.77187 5 9.00722 5 9.29199C5 9.57676 5.21161 9.81211 5.48617 9.84936L5.5625 9.85449H8.93878L9.0151 9.84936C9.28966 9.81211 9.50128 9.57676 9.50128 9.29199C9.50128 9.00722 9.28966 8.77187 9.0151 8.73463L8.93878 8.72949ZM10.4375 6.10449H5.5625L5.48617 6.10963C5.21161 6.14687 5 6.38222 5 6.66699C5 6.95176 5.21161 7.18711 5.48617 7.22436L5.5625 7.22949H10.4375L10.5138 7.22436C10.7884 7.18711 11 6.95176 11 6.66699C11 6.38222 10.7884 6.14687 10.5138 6.10963L10.4375 6.10449Z" fill="#A1A4BD"/>
</svg>
