<svg width="15" height="15" viewBox="0 0 15 15" fill="none" xmlns="http://www.w3.org/2000/svg">
<path d="M1.00208 14.7504C1.06283 14.7504 1.12358 14.7429 1.18358 14.7279L4.18358 13.9779C4.31558 13.9449 4.43633 13.8767 4.53233 13.7807L13.7521 4.56095C14.0356 4.27745 14.1916 3.90095 14.1916 3.50045C14.1916 3.09995 14.0356 2.72345 13.7521 2.43995L12.5626 1.25045C11.9956 0.683445 11.0086 0.683445 10.4416 1.25045L1.22183 10.4702C1.12583 10.5662 1.05758 10.6869 1.02458 10.8182L0.274579 13.8182C0.210079 14.0739 0.285829 14.3439 0.471829 14.5307C0.613579 14.6732 0.805579 14.7504 1.00208 14.7504ZM11.5021 2.31095L12.6916 3.50045L11.5021 4.68995L10.3126 3.50045L11.5021 2.31095ZM2.42933 11.3837L9.25208 4.56095L10.4416 5.75045L3.61808 12.5732L2.03258 12.9692L2.42933 11.3837Z" fill="#3E53FF"/>
</svg>
