<svg width="16" height="13" viewBox="0 0 16 13" fill="none" xmlns="http://www.w3.org/2000/svg">
<path d="M9.16284 12.0486C9.16284 12.4333 8.87331 12.7503 8.50031 12.7936L8.41284 12.7986H3.91284C2.3062 12.7986 0.994534 11.5357 0.916515 9.94836L0.912843 9.79863V3.80176C0.912843 2.19511 2.17582 0.883449 3.76311 0.805429L3.91284 0.801758L8.41284 0.801758C8.82706 0.801758 9.16284 1.13754 9.16284 1.55176C9.16284 1.93638 8.87331 2.25339 8.50031 2.29671L8.41284 2.30176L3.91284 2.30176C3.12207 2.30176 2.47422 2.91367 2.41696 3.68981L2.41284 3.80176V9.79863C2.41284 10.5894 3.02475 11.2373 3.8009 11.2945L3.91284 11.2986H8.41284C8.82706 11.2986 9.16284 11.6344 9.16284 12.0486ZM11.9458 2.51829L15.6932 6.26653C15.9634 6.53677 15.9843 6.96191 15.7558 7.25611L15.6935 7.32677L11.9461 11.0794C11.6534 11.3724 11.1785 11.3728 10.8854 11.0801C10.6149 10.8099 10.5938 10.3845 10.8223 10.0901L10.8847 10.0194L13.3516 7.54876L5.97163 7.54898C5.58701 7.54898 5.27 7.25945 5.22668 6.88644L5.22163 6.79898C5.22163 6.41435 5.51116 6.09735 5.88417 6.05402L5.97163 6.04898L13.3553 6.04876L10.885 3.57884C10.6147 3.30845 10.5939 2.88303 10.8227 2.58883L10.8851 2.51818C11.1555 2.24785 11.5809 2.2271 11.8751 2.45589L11.9458 2.51829L15.6932 6.26653L11.9458 2.51829Z" fill="#A1A4BD"/>
</svg>
