<svg width="581" height="546" viewBox="0 0 581 546" fill="none" xmlns="http://www.w3.org/2000/svg">
<path d="M380.8 219.7C380.8 290.6 323.4 348 252.5 348C181.6 348 130.9 297.3 130.9 226.4C130.9 155.5 181.6 91.3999 252.5 91.3999C323.4 91.3999 380.8 104.9 380.8 219.7Z" fill="#E0E2F0"/>
<path d="M514.8 61.5H399.8V84.3H514.8V61.5Z" fill="#E0E2F0"/>
<path d="M487.6 107.8H399.8V113.2H487.6V107.8Z" fill="#E0E2F0"/>
<path d="M487.6 129.1H399.8V134.5H487.6V129.1Z" fill="#E0E2F0"/>
<path d="M487.6 150.4H399.8V155.8H487.6V150.4Z" fill="#E0E2F0"/>
<path d="M467.7 375.6C467.6 374.6 465.9 374.6 466.1 375.6C468.5 394.1 460.8 412.9 446.8 425.1C432.6 437.4 413.3 440.6 395.6 434.9C376.4 428.7 363.5 413.6 358.3 394.4C353 374.7 353.9 353.4 344.7 334.8C336.8 318.7 317.9 305.5 299.7 313.6C298.7 314 299.6 315.4 300.5 315C310.3 310.6 321.4 313.3 329.9 319.3C339 325.8 344.3 336 347.4 346.5C353.6 367.2 352 390 362.2 409.5C378.1 439.8 420.6 449.1 447 427.1C461.8 414.6 470.2 394.8 467.7 375.6Z" fill="#90A1FF"/>
<path d="M329.3 315.6C310.9 330.2 285.5 335.1 263.1 328C242.4 321.4 225 304.7 217.6 284.2C210.3 263.9 211.8 239.8 196 223.3C191.7 218.9 186.7 215.3 181.2 212.9C182.9 207.4 184.2 201.8 185 196.1C187.5 177.2 182.9 155.7 167.6 143.1C151.8 130.1 128.8 131.1 111.6 140.7C92 151.6 79.5 171.3 70.8 191.4C68.5 196.8 66.4 202.2 64.3 207.7C63.9 208.7 65.5 209.1 65.9 208.1C73.5 187.6 82.6 166.7 99.1 151.7C114.8 137.4 138 129.7 158.2 139.2C176.8 147.9 184.7 169.4 183.9 188.8C183.6 196.8 181.9 204.6 179.6 212.3C168 207.5 154.8 207.2 142.9 212.3C126.2 219.5 109.4 239.6 115.9 258.8C118.6 267 125.6 272.9 134.3 273.2C143.9 273.5 152.5 268 158.3 260.7C165.3 252 169.7 241.1 174.1 231C176.5 225.6 178.6 220.1 180.5 214.5C192.3 220.2 201.5 230.9 205.9 243.9C212.2 262.7 212.2 282.8 223.5 299.9C234.3 316.3 251.7 328.3 271.1 331.8C291.9 335.6 313.8 330 330.3 316.9C331.2 316.1 330.1 315 329.3 315.6ZM176 222.7C171.9 233.1 167.4 243.7 161.6 253.2C156 262.4 147.6 271 136.2 271.5C123.9 272.1 116 261.2 116.4 249.6C117.1 227.9 139 210.7 159.6 209.9C166.6 209.6 173.2 211 179.2 213.6C178.2 216.8 177.1 219.8 176 222.7Z" fill="#90A1FF"/>
<path d="M366.6 46.2998C366.2 45.2998 364.6 45.7998 365 46.6998C371.3 62.6998 367.8 81.8998 355.5 94.0998C349.2 100.4 340.7 104.5 331.8 106.1C338.3 92.8998 335.8 75.8998 320.3 69.6998C312.6 66.5998 304 68.3998 298.6 74.6998C293.6 80.4998 291.9 88.8998 295.9 95.6998C300.5 103.3 310 106.8 318.4 108C321.9 108.5 325.4 108.5 329 108.1C327.9 109.8 326.7 111.4 325.3 112.8C308.7 130.2 282 126.3 260.8 122.8C259.8 122.6 259.3 124.2 260.4 124.4C282 128 308.9 131.8 326 114.4C327.9 112.4 329.6 110.2 330.9 107.9C336.5 107.1 341.9 105.3 346.8 102.6C366.6 91.7998 374.7 66.9998 366.6 46.2998ZM307.4 103.2C299.3 99.3998 293.3 91.8998 296.1 82.6998C298.7 74.2998 306.9 68.5998 315.7 70.0998C324.3 71.5998 331.6 78.5998 333.4 87.0998C334.8 93.6998 333.3 100.6 330 106.4C322.4 107.4 314.4 106.4 307.4 103.2Z" fill="#90A1FF"/>
<path d="M420.4 378.2C417.1 379.3 340.1 432.4 340.1 432.4L419.3 463.9L420.4 378.2Z" fill="#E0E2F0"/>
<path d="M209.8 278.6C209.1 287.7 207.5 294.4 202.6 296.9C205.1 298.7 208 300 210.5 301.4C214.4 303.5 218.2 305.5 221.9 307.9C230.3 313.4 238.6 320.1 248.8 321.8C249.3 321.9 249.4 322.2 249.4 322.6C251.7 323.2 254 323.7 256.3 324.1L256.6 324C256.6 324 253.9 309.2 252.3 292.3C238.1 288 223.7 284 209.8 278.6Z" fill="#FFCCCA"/>
<path d="M205.8 294.2C203.9 296.8 201.1 298.2 197 298C168.8 296.4 164.5 299.6 159 305L213.8 343L256.6 324C256.6 324 256.3 322.3 255.8 319.5C238.9 311.7 222.3 303 205.8 294.2Z" fill="black"/>
<path d="M237.1 197.6C206.7 216.4 205.3 255.8 203.5 279.2C217.9 287 238.6 294.4 253.3 301.5C250.6 278.9 248.7 246.8 258.7 243.7C274.4 238.8 306.4 296.8 306.4 296.8L329.7 277.3C328.8 274 289.4 165.2 237.1 197.6Z" fill="url(#paint0_linear)"/>
<path d="M222.8 464.9C234.6 465.2 246.6 462 257.7 458.7C265.6 456.4 273.4 453.6 281.1 450.9C277.6 444 273.8 436.2 270.2 428C253.4 434.4 236.2 440 218.5 442.3C221.7 452.7 223.8 460.5 222.8 464.9Z" fill="#FFCCCA"/>
<path d="M252.7 451.8C243.2 454.2 233 457.5 222.8 459.4C223.2 462.9 223 465.5 221.9 467.1C214.3 477.4 199.1 491 199.7 507.8L264.7 485L262.3 478.9L271.2 476.5L273.4 481.9L294 474.7C294 474.7 286.6 462.1 278.3 445.2C269.8 447.5 261.3 449.7 252.7 451.8Z" fill="black"/>
<path d="M321.2 286.5C304.9 292.5 207.9 296.3 202.4 349.9C198.7 385.7 206.3 423.6 213.2 446.4C224.2 444.5 241.4 438.7 251.6 436.2C258.3 434.5 264.9 432.8 271.6 431C258.9 403 247.8 369.9 259.9 359.6C282.1 340.6 330.4 340.1 353.7 302.7C370.9 275.2 321.2 286.5 321.2 286.5Z" fill="url(#paint1_linear)"/>
<path d="M371.8 173.1C371.8 173.6 371.7 174.1 371.6 174.5C371.5 175 371.5 175.4 371.4 175.9C371.4 176 371.4 176.1 371.3 176.2C371.2 176.6 371.1 177 371 177.4C369.2 183.2 364.5 187.8 357.3 187.9C343.4 188.2 337.9 176.6 339.7 167.1C340.9 160.7 345.3 155.2 352.6 154.7C352.9 154.7 353.2 154.7 353.5 154.7C360.2 154.6 365 157.1 368 160.7C368.5 161.3 369 162 369.4 162.7C369.7 163.2 369.9 163.6 370.1 164.1C370.4 164.8 370.7 165.6 371 166.3C371.7 168.4 372 170.8 371.8 173.1Z" fill="#FFCCCA"/>
<path d="M371.8 173.1C371.8 173.6 371.7 174.1 371.6 174.5C371.5 175 371.5 175.4 371.4 175.9C371.4 176 371.4 176.1 371.3 176.2C371.2 176.6 371.1 177 371 177.4C370.5 177.3 366.3 176.5 364.3 174.6C365.1 170.9 363.8 166.9 360.2 165.8C357.4 165 354.9 167 353 168.9C350.3 168.3 340.4 170.1 336.5 168.7C337.7 162.3 345.1 155.2 352.5 154.6C352.8 154.6 353.1 154.6 353.4 154.6C360.1 154.5 364.9 157 367.9 160.6C368.4 161.2 368.9 161.9 369.3 162.6C369.6 163.1 369.8 163.5 370 164C370.3 164.7 370.6 165.5 370.9 166.2C371.7 168.4 372 170.8 371.8 173.1Z" fill="#FF5852"/>
<path d="M343.7 173.3L347.1 181.9L340.8 182.3L343.7 173.3Z" fill="#FF5852"/>
<path d="M348.9 172.2L349.3 173.4C349.6 174.4 348 174.7 347.7 173.8L347.3 172.6C347 171.6 348.6 171.3 348.9 172.2Z" fill="#0D0F44"/>
<path d="M341.3 172.9L341.7 174.1C342 175.1 340.4 175.4 340.1 174.5L339.7 173.3C339.4 172.2 341 171.9 341.3 172.9Z" fill="#0D0F44"/>
<path d="M358.8 169.9C358.7 170.8 358.5 171.7 358.4 172.6C358.2 173.6 359.8 174.1 360 173C360.1 172.1 360.3 171.2 360.4 170.3C360.5 169.3 358.9 168.8 358.8 169.9Z" fill="black"/>
<path d="M351.3 158.3C347.2 152.1 348.3 142.8 359.4 147.5C370.5 152.1 378.1 157.5 368.1 161.9C358 166.1 351.3 158.3 351.3 158.3Z" fill="#FF5852"/>
<path d="M336.7 230.5C326.7 238.4 316.7 242.8 308.6 236.7C301.2 231.2 298 225.5 296 220.4C294.8 219.9 293.7 219.1 292.8 218C288.4 212.3 283.1 207.4 277.6 202.7C270.9 204.9 265.6 217.8 267.7 223.9C271.2 234.2 313.4 291.1 342 259.7C344.5 257 346.7 254.3 348.8 251.6C344.2 245 340.3 237.8 336.7 230.5Z" fill="#FFCCCA"/>
<path d="M368.1 210.7C367.7 212.7 367.2 215 366.4 217.5C363.4 227.9 357.3 241.6 345.1 256.1C342.1 247.7 333.9 236.2 331.4 227.6C340.2 220.7 351.9 212.6 360.9 205.8C361.7 205.2 362.5 204.6 363.2 204C363.7 203.6 364.2 203.3 364.6 202.9C365.3 202.3 366.1 201.7 366.8 201.1C367.7 200.4 368.5 199.7 369.3 199C369.4 198.9 369.6 203.4 368.1 210.7Z" fill="#FFC53E"/>
<path d="M293.6 228C291.7 225.1 290.7 222 290.5 218.6C290.4 217.6 288.8 217.6 288.9 218.6C289.1 222.3 290.2 225.7 292.3 228.8C292.7 229.7 294.2 228.9 293.6 228Z" fill="#FF5852"/>
<path d="M369.4 177.1C370.2 177.4 379.8 200 379.8 200C379.8 200 366.9 206.3 366.6 205.5C366.3 204.7 354.1 180.4 354.1 180.4L369.4 177.1Z" fill="#FFCCCA"/>
<path d="M366.5 172.9C371.4 165.3 393.1 151.8 395.8 174.5C398.5 197.2 420.2 184.5 429.1 208.9C438 233.3 405.2 253.1 395.8 238.2C386.4 223.3 404.5 210.5 387.9 203C371.3 195.5 366.5 172.9 366.5 172.9Z" fill="#FF5852"/>
<path d="M379.9 233.7C379.9 246 376.5 258.4 372.2 269.2C364.5 288.5 353.7 302.8 353.7 302.8L314.8 273.9C327.7 269.7 342 248.4 353.2 228.9C359.4 218 364.6 207.7 368.1 201.1C368.1 201.1 372.1 189.6 377.1 212.1C377.8 215.2 378.5 219 379.2 223.6C379.7 226.9 380 230.3 379.9 233.7Z" fill="#FFC53E"/>
<path d="M377 212.1C371.8 223 366.4 234.1 366.4 234.1L353.1 228.9C359.3 218 364.5 207.7 368 201.1C368.1 201.1 372 189.6 377 212.1Z" fill="#FFC53E"/>
<path d="M379.9 233.7C379.9 246 376.5 258.4 372.2 269.2C366.6 264.4 369.2 247.3 372 229C372 228.9 375.5 231 379.9 233.7Z" fill="#FFC53E"/>
<path d="M292.6 217.4L273.9 218.7L251.2 192.2H270.6L292.6 217.4Z" fill="black"/>
<path d="M287.6 213.5L274.1 214.2L257.8 195.7L271.3 195L287.6 213.5Z" fill="#E0E2F0"/>
<path d="M321.7 259.4C321.7 259.4 331.9 271.2 332.7 279.3C333.5 287.4 321.3 271.3 320.8 271.2C320.2 271.1 321.7 259.4 321.7 259.4Z" fill="#FFCCCA"/>
<path d="M334.2 278.8C331.9 272.9 328.9 267.3 325.3 262.1C324.7 261.3 323.3 262.1 323.9 262.9C327.5 268 330.4 273.4 332.7 279.2C333 280.2 334.5 279.8 334.2 278.8Z" fill="#FF5852"/>
<path d="M338.2 213C334.1 215 330.1 215 325.9 213.3C325.3 213 324.8 213.8 324.9 214.3C325.6 219.3 322.5 224.6 317.6 225.2C317.8 224 318 222.7 318.1 221.5C318.3 219.1 318.1 216.2 316.1 214.6C313.9 212.9 310.9 213.6 309.2 215.7C305.3 220.5 310.6 226.2 315.6 226.8C314.1 235.2 312.4 243.7 310.8 252.1C310.6 253.1 312.2 253.6 312.4 252.5C313.4 246.9 314.5 241.4 315.5 235.8C316.1 232.8 316.8 229.8 317.3 226.8C323.3 226.4 326.8 220.9 326.6 215.2C330.8 216.6 334.9 216.3 339 214.3C340 213.9 339.2 212.5 338.2 213ZM314.6 225C312.8 224.5 310.9 223.1 310.2 221.4C307.8 214.8 314.1 213.2 316.3 217.8C317.1 219.5 316.4 222.4 316.1 224.1C316 224.5 316 224.9 315.9 225.3C315.5 225.2 315 225.1 314.6 225Z" fill="#90A1FF"/>
<path d="M325 242.6L324.5 252.2L324.4 254.6L323.8 267.1L323.7 269.5L322.8 288.1H300.6L299.6 279.4L299.3 277.4L298 265.4L297.8 263.4L296.5 251.7L296.2 249.7L295.7 244.9L301.4 244.5L303.9 244.3L318 243.1L320.5 243L325 242.6Z" fill="#E0E2F0"/>
<path d="M296.1 220.5C296.1 220.5 293 207.5 281.9 204.5C270.8 201.5 289.8 212.4 290.2 219.4C290.6 226.4 296.1 220.5 296.1 220.5Z" fill="#FFCCCA"/>
<path d="M269 226.3C262.8 214.6 259.4 202 262.9 201C266.3 200 265.7 207.7 265.7 207.7C265.7 207.7 266 200.8 269.4 205C273.1 209.7 271.8 212.5 271.8 212.5C271.8 212.5 270.8 206.3 273.6 208.7C276.4 211.1 276.2 215.4 276.2 215.4C276.2 215.4 274.2 212 277.1 213.4C280 214.8 275.1 226.2 275.1 226.2L269 226.3Z" fill="#FFCCCA"/>
<path d="M264.099 201C263.099 200.6 262.699 202.2 263.699 202.6C265.199 203.2 264.399 207.3 264.399 208.5C264.299 210.3 264.299 212.2 264.199 214C264.199 215 265.799 215 265.799 214C265.899 210.9 266.199 207.7 266.199 204.5C266.099 202.8 265.599 201.6 264.099 201Z" fill="#FF5852"/>
<path d="M278.699 214.5C278.299 213 276.999 212.1 275.799 212.3C275.799 211.7 275.799 211.1 275.599 210.6C274.999 208.4 272.899 207.1 271.099 208.6C271.199 207.8 271.199 207.1 271.099 206.4C270.699 204.2 268.699 202.9 266.699 204C265.799 204.5 266.599 205.9 267.499 205.4C269.099 205.9 269.799 206.8 269.399 208C269.299 208.6 269.199 209.3 269.099 209.9C268.899 211 268.599 212.2 268.299 213.3C267.799 215.5 267.099 217.7 266.399 219.9C266.099 220.9 267.599 221.3 267.999 220.3C268.799 217.7 269.599 215.2 270.199 212.5C270.399 211.7 270.599 210.9 270.799 210C272.899 208 274.399 211.3 273.899 212.7C273.799 213.4 273.699 214.2 273.599 214.9C273.399 215.8 273.199 216.8 272.899 217.7C272.199 220 271.199 222.2 270.099 224.3C269.599 225.2 270.999 226 271.499 225.1C272.799 222.7 273.899 220.2 274.599 217.6C274.899 216.6 275.199 215.4 275.499 214.2C276.899 214.7 277.399 215.4 277.099 216.5C276.999 217.1 276.899 217.7 276.699 218.3C276.499 219.4 276.199 220.4 275.899 221.5C275.299 223.6 274.599 225.7 273.799 227.7C273.399 228.7 274.999 229.1 275.399 228.1C276.399 225.4 277.399 222.6 278.099 219.8C278.499 218.2 279.199 216.2 278.699 214.5Z" fill="#FF5852"/>
<path d="M381 259.8C382.8 273.9 380.9 285.5 369.3 289.3C338 299.4 330 269.9 315.7 263.5C301.3 257.2 300.4 257.9 299.2 259.3C298.1 260.7 312 268 312 268C312 268 298.6 262.7 296 265C293.2 267.4 308.5 273.3 308.1 273.5C307.7 273.6 293.2 268.4 292.5 271.6C291.7 275.4 305.2 278.3 305.2 278.3C305.2 278.3 292.7 274.4 292.4 277.2C292.1 280 303.8 281.1 306.8 286.4C309.8 291.6 354.9 348.2 401.7 309.9C415.8 298.3 415.7 282 408.9 257.4C399.6 258.4 390.3 259.4 381 259.8Z" fill="#FFCCCA"/>
<path d="M409.6 236.1C401.3 211.5 391.7 200.6 383.8 196C383.2 195.7 382.6 195.3 382 195.1C381.7 195 381.4 194.8 381.2 194.7C379.9 194.1 378.7 193.7 377.5 193.4C373.9 197.9 371.4 203.3 368.1 208.1C368 208.2 367.9 208.3 367.8 208.5C367.9 209.2 368 210 368.2 210.8C368.4 211.9 368.6 212.9 368.8 214C369.4 217 370.1 220.2 370.8 223.6C371.2 225.4 371.6 227.1 372.1 229C375 241.2 378.1 254.2 379.1 265C388.6 264.7 408.3 263.6 417.8 262.7C415.7 254.7 412.9 245.9 409.6 236.1Z" fill="#FFC53E"/>
<path d="M306.5 277.5C303.8 276.6 301 275.9 298.1 275.6C296.1 275.3 294.2 275 292.6 276.4C291.8 277.1 293 278.2 293.8 277.6C295.4 276.2 299 277.3 300.7 277.7C302.5 278.1 304.3 278.6 306.1 279.1C307.1 279.4 307.5 277.8 306.5 277.5Z" fill="#FF5852"/>
<path d="M309.1 273.5C304.3 270.7 298.9 269.4 293.3 269.7C292.3 269.8 292.3 271.4 293.3 271.3C298.6 271 303.6 272.2 308.2 274.9C309.2 275.4 310 274 309.1 273.5Z" fill="#FF5852"/>
<path d="M312.3 267.3C308.6 266 305 264.4 301.2 263.3C298.9 262.6 296.6 262.7 295 264.6C294.3 265.4 295.5 266.6 296.2 265.8C298.5 263 302.7 265.5 305.3 266.5C307.5 267.3 309.7 268.1 311.9 268.9C312.9 269.3 313.3 267.7 312.3 267.3Z" fill="#FF5852"/>
<path d="M381.2 194.7L368.7 214L366.4 217.5L365.2 219.4C365.2 219.4 364.8 209.8 364.7 202.8C365.4 202.2 366.2 201.6 366.9 201C366.8 198.7 366.9 196.7 367.2 195L374 192.9C376.1 193 378.5 193.5 381.2 194.7Z" fill="#FFCCCA"/>
<path d="M364.9 245.6C365.2 245.8 365.5 246 365.9 246.3C368 240.5 370 234.7 372.1 228.9C376 217.9 379.9 207 383.8 196C383.2 195.7 382.6 195.3 382 195.1C378.3 204.6 373.2 214.7 369.4 224.2C366.7 231.1 363.9 238.1 361.2 245.1C362 245.3 364.1 245.1 364.9 245.6Z" fill="#FFC53E"/>
<path d="M363.3 203.899C359.1 215.999 357.7 228.899 353.4 240.999C353 241.999 348.6 240.699 349 239.699C353 228.399 357 217.099 361 205.799C361.8 205.099 362.6 204.499 363.3 203.899Z" fill="#FFC53E"/>
<defs>
<linearGradient id="paint0_linear" x1="329.7" y1="238.846" x2="181.702" y2="238.846" gradientUnits="userSpaceOnUse">
<stop stop-color="#3E53FF"/>
<stop offset="1" stop-color="#91A1FF"/>
</linearGradient>
<linearGradient id="paint1_linear" x1="357.319" y1="353.946" x2="174.504" y2="353.946" gradientUnits="userSpaceOnUse">
<stop stop-color="#3E53FF"/>
<stop offset="1" stop-color="#91A1FF"/>
</linearGradient>
</defs>
</svg>
