<svg width="15" height="15" viewBox="0 0 15 15" fill="none" xmlns="http://www.w3.org/2000/svg">
<path d="M10 2.37695C10 3.8267 11.1753 5.00195 12.625 5.00195C13.0279 5.00195 13.4096 4.91118 13.7508 4.74897L13.75 12.6882C13.75 13.8273 12.8266 14.7507 11.6875 14.7507H2.3125C1.17341 14.7507 0.25 13.8273 0.25 12.6882V3.31319C0.25 2.1741 1.17341 1.25069 2.3125 1.25069L10.2533 1.25042C10.0909 1.59178 10 1.97375 10 2.37695ZM12.625 0.501953C13.6605 0.501953 14.5 1.34142 14.5 2.37695C14.5 3.41249 13.6605 4.25195 12.625 4.25195C11.5895 4.25195 10.75 3.41249 10.75 2.37695C10.75 1.34142 11.5895 0.501953 12.625 0.501953Z" fill="url(#paint0_linear)"/>
<defs>
<linearGradient id="paint0_linear" x1="14.5" y1="6.62891" x2="-2.21136" y2="6.62891" gradientUnits="userSpaceOnUse">
<stop stop-color="#3E53FF"/>
<stop offset="1" stop-color="#91A1FF"/>
</linearGradient>
</defs>
</svg>
