<svg width="409" height="387" viewBox="0 0 409 387" fill="none" xmlns="http://www.w3.org/2000/svg">
<path d="M177.414 238.632C166.007 236.86 155.804 242.174 145.672 246.567C139.65 249.189 133.344 251.456 126.755 251.527C121.724 251.598 116.694 250.393 112.018 248.693C94.5878 242.316 77.8667 227.649 58.0988 232.822C47.9669 235.514 39.3229 242.67 34.8592 252.164C34.505 252.944 35.6386 253.652 35.9929 252.873C40.3149 243.662 48.6046 236.719 58.4531 234.168C68.3724 231.546 78.2209 234.38 87.29 238.49C95.4381 242.245 103.232 246.921 111.663 250.039C120.449 253.227 129.306 253.794 138.304 250.96C151.128 246.921 163.031 237.923 177.131 240.049C177.91 240.049 178.265 238.773 177.414 238.632Z" fill="#D7DAF1"/>
<path d="M179.753 250.11C168.345 248.339 158.143 253.653 148.011 258.046C141.988 260.667 135.682 262.934 129.093 263.005C124.063 263.076 119.032 261.872 114.356 260.171C96.9262 253.794 80.205 239.128 60.4372 244.3C50.3053 246.993 41.6613 254.149 37.1976 263.643C36.8433 264.422 37.977 265.131 38.3312 264.351C42.6532 255.141 50.943 248.197 60.7915 245.646C70.7108 243.025 80.5593 245.859 89.6284 249.968C97.7764 253.724 105.57 258.4 114.002 261.517C122.787 264.706 131.644 265.272 140.642 262.438C153.466 258.4 165.37 249.402 179.469 251.527C180.249 251.527 180.674 250.181 179.753 250.11Z" fill="#D7DAF1"/>
<path d="M194.844 325.071C193.923 326.417 187.617 347.177 187.617 347.177H179.469L176.777 339.525L172.738 347.177H118.607C118.607 347.177 116.836 336.832 131.715 334.069C146.594 331.377 153.821 320.962 162.394 296.588C170.967 272.286 194.844 325.071 194.844 325.071Z" fill="black"/>
<path d="M240.402 325.071C241.252 326.417 247.204 347.177 247.204 347.177H254.856L257.407 339.525L261.233 347.177H312.388C312.388 347.177 314.089 336.832 299.989 334.069C285.889 331.377 279.088 320.962 271.01 296.588C263.004 272.286 240.402 325.071 240.402 325.071Z" fill="black"/>
<path d="M186.767 119.74C185.846 119.74 150.207 295.313 147.09 317.419L201.221 330.951L210.219 188.326C210.219 188.326 237.285 316.498 238.631 328.188L290.495 326.417C290.495 326.417 239.056 131.927 231.829 121.512C224.673 111.167 186.767 119.74 186.767 119.74Z" fill="url(#paint0_linear)"/>
<path d="M218.509 179.895C215.816 181.453 213.053 183.012 210.361 184.571C209.581 184.996 210.29 186.2 211.069 185.704C213.762 184.146 216.525 182.587 219.217 181.028C219.926 180.603 219.288 179.469 218.509 179.895Z" fill="#D7DAF1"/>
<path d="M159.772 327.905C156.513 326.771 153.254 325.637 149.995 324.504C149.144 324.22 148.79 325.496 149.64 325.779C152.9 326.913 156.159 328.046 159.418 329.18C160.268 329.534 160.622 328.188 159.772 327.905Z" fill="#D7DAF1"/>
<path d="M285.323 329.038C281.71 330.101 278.096 331.235 274.483 332.298C273.632 332.581 273.987 333.856 274.837 333.573C278.45 332.51 282.064 331.377 285.677 330.314C286.528 330.101 286.173 328.826 285.323 329.038Z" fill="#D7DAF1"/>
<path d="M195.057 314.017C181.311 311.466 167.566 308.986 153.821 306.436C152.971 306.294 152.616 307.569 153.466 307.711C167.212 310.262 180.957 312.742 194.703 315.292C195.553 315.434 195.978 314.159 195.057 314.017Z" fill="#D7DAF1"/>
<path d="M283.197 314.23L241.607 318.127C240.757 318.198 240.757 319.544 241.607 319.473L283.197 315.576C284.048 315.506 284.048 314.159 283.197 314.23Z" fill="#D7DAF1"/>
<path d="M334.636 94.3756C323.866 100.965 313.026 107.554 302.256 114.143C301.548 114.569 302.186 115.773 302.965 115.277C313.735 108.688 324.575 102.098 335.345 95.5092C336.053 95.0841 335.415 93.8796 334.636 94.3756Z" fill="#3E53FF"/>
<path d="M328.472 142.485C322.166 139.58 315.789 136.675 309.483 133.77C308.704 133.416 307.995 134.549 308.775 134.904C315.08 137.808 321.457 140.713 327.763 143.618C328.613 144.043 329.322 142.839 328.472 142.485Z" fill="#3E53FF"/>
<path d="M72.5531 114.426C64.901 113.08 57.1781 111.734 49.5261 110.317C48.6758 110.175 48.3216 111.45 49.1718 111.592C56.8239 112.938 64.5468 114.284 72.1988 115.701C73.0491 115.914 73.4033 114.568 72.5531 114.426Z" fill="#3E53FF"/>
<path d="M67.4517 135.964C58.7368 140.711 49.9512 145.458 41.2363 150.205C40.4569 150.63 41.1654 151.693 41.9448 151.339C42.7242 150.985 43.5036 150.63 44.283 150.276C44.4955 150.205 44.6372 149.993 44.6372 149.851C52.5018 145.6 60.2956 141.349 68.1602 137.098C68.8687 136.672 68.2311 135.539 67.4517 135.964Z" fill="#3E53FF"/>
<path d="M336.691 179.895H287.945V221.556H336.691V179.895Z" fill="#D7DAF1"/>
<path d="M336.691 185.705V187.689C336.478 187.901 336.266 188.185 335.982 188.397V188.327C335.345 188.964 334.707 189.673 334.069 190.452C333.29 191.302 332.44 192.365 331.448 193.641C327.126 198.954 321.245 206.181 316.498 208.024C310.546 210.362 305.728 207.953 301.052 205.615C297.439 203.772 293.967 202.072 290.07 202.639C289.999 202.639 289.999 202.639 289.928 202.639C289.22 202.71 288.582 202.851 287.874 202.993V201.718C293.046 200.088 297.439 202.285 301.619 204.41C306.224 206.677 310.546 208.874 315.931 206.748C320.324 205.048 326.346 197.679 330.314 192.79C331.306 191.586 332.227 190.452 332.936 189.602C333.998 188.397 334.99 187.335 336.053 186.272L336.691 185.705Z" fill="white"/>
<path d="M317.348 225.878H288.582C287.732 225.878 287.732 227.224 288.582 227.224H317.348C318.269 227.295 318.269 225.878 317.348 225.878Z" fill="black"/>
<path d="M269.806 112.727V112.231C269.806 112.727 269.664 152.192 269.664 152.192C278.096 150.421 288.228 129.803 269.806 112.727Z" fill="#FFCCCA"/>
<path d="M100.752 129.306C98.6264 132.565 82.4721 161.544 101.248 169.762L100.752 129.306Z" fill="#FFCCCA"/>
<path d="M125.904 111.381C115.489 115.561 106.633 120.946 101.248 128.102V169.763C103.515 167.638 119.528 155.097 138.516 143.123C134.123 132.637 129.73 122.15 125.904 111.381Z" fill="#FFCCCA"/>
<path d="M267.893 110.742C265.059 119.244 261.445 127.463 257.761 135.682C262.508 139.579 266.617 144.397 268.672 150.349C268.885 150.278 269.097 150.207 269.31 150.136V111.522C268.814 111.238 268.318 110.955 267.893 110.742Z" fill="#FFCCCA"/>
<path d="M101.461 137.099C100.752 136.603 100.043 137.808 100.752 138.233C103.09 139.65 110.884 143.759 108.758 147.231C108.333 148.01 109.467 148.648 109.892 147.94C112.726 143.334 104.436 138.941 101.461 137.099Z" fill="#FF5852"/>
<path d="M269.593 120.592C269.522 121.3 269.452 122.009 269.381 122.717C268.601 129.732 265.98 135.542 260.453 141.918C258.753 140.218 256.981 138.588 255.139 137.1C254.785 136.817 254.431 136.534 254.077 136.25C248.55 131.928 242.598 128.456 238.206 126.118C237.78 125.906 237.355 125.693 236.93 125.481C235.23 124.63 233.813 123.922 232.892 123.497C231.971 123.072 231.475 122.859 231.475 122.859C231.475 122.859 227.223 120.167 217.375 119.033C216.808 118.962 216.241 118.891 215.674 118.891C208.944 118.324 199.874 118.466 188.113 120.521C187.829 120.592 187.475 120.663 187.192 120.663C186.979 120.733 186.767 120.733 186.483 120.804C186.271 120.875 185.987 120.875 185.704 120.946C170.683 124.276 152.049 137.809 135.611 148.366C135.328 147.586 135.044 146.807 134.69 146.028C134.548 145.603 134.336 145.107 134.194 144.682C131.927 138.73 129.518 132.07 127.18 125.693C127.038 125.197 126.826 124.772 126.684 124.276C125.267 120.308 123.85 116.341 122.645 112.798C129.731 109.68 137.595 107.201 145.672 105.288C146.523 105.075 147.302 104.862 148.152 104.721C158.78 102.312 169.55 100.753 179.044 99.7611C179.752 99.6903 180.461 99.6194 181.169 99.5486C190.38 98.6275 198.103 98.2024 202.85 98.0606C202.921 98.0606 202.992 98.0606 202.992 98.0606C204.48 97.9898 206.464 97.9189 208.731 97.9189C209.369 97.9189 210.006 97.9189 210.644 97.9189C213.832 97.9189 217.588 98.0607 221.697 98.3441C225.665 98.6275 230.058 99.1234 234.592 99.9028C235.159 99.9737 235.655 100.045 236.222 100.186C242.811 101.32 249.755 103.091 256.698 105.713C257.123 105.854 257.619 106.067 258.044 106.209C261.941 107.697 265.767 109.539 269.522 111.593C269.664 114.853 269.735 117.828 269.593 120.592Z" fill="#FF5852"/>
<path d="M269.593 121.796C269.451 121.3 269.381 120.875 269.31 120.379C266.688 121.867 265.2 124.772 265.413 127.748C265.484 128.598 266.83 128.598 266.759 127.748C266.547 125.409 267.609 123.142 269.593 121.796Z" fill="#FFCCCA"/>
<path d="M272.286 120.804C271.152 122.08 270.018 123.284 268.885 124.559C268.318 125.197 269.239 126.189 269.877 125.551C271.01 124.276 272.144 123.072 273.278 121.796C273.844 121.088 272.923 120.096 272.286 120.804Z" fill="#FF5852"/>
<path d="M275.616 73.9697H95.5798C94.7296 73.9697 94.7296 75.3159 95.5798 75.3159H275.616C276.537 75.3159 276.537 73.9697 275.616 73.9697Z" fill="black"/>
<path d="M112.372 65.6107C112.372 67.9489 110.459 69.9327 108.05 69.9327C105.712 69.9327 104.011 68.2323 104.011 65.8942C104.011 63.556 105.712 61.3596 108.05 61.3596C110.459 61.2888 112.372 61.7847 112.372 65.6107Z" fill="#FFC53E"/>
<path d="M123.496 65.6095C123.496 67.9477 121.583 69.9315 119.174 69.9315C116.765 69.9315 115.135 68.2311 115.135 65.893C115.135 63.5548 116.835 61.3584 119.174 61.3584C121.512 61.3584 123.496 61.7835 123.496 65.6095Z" fill="url(#paint1_linear)"/>
<path d="M134.619 65.6095C134.619 67.9477 132.706 69.9315 130.297 69.9315C127.888 69.9315 126.259 68.2311 126.259 65.893C126.259 63.5548 127.959 61.3584 130.297 61.3584C132.636 61.3584 134.619 61.7835 134.619 65.6095Z" fill="#D7DAF1"/>
<path d="M269.31 205.26H100.752C100.398 205.26 100.044 204.977 100.044 204.552V58.8081C100.044 58.4539 100.327 58.0996 100.752 58.0996H269.31C269.664 58.0996 270.019 58.383 270.019 58.8081V204.552C270.019 204.977 269.664 205.26 269.31 205.26ZM101.461 203.914H268.672V59.5167H101.461V203.914Z" fill="black"/>
<path d="M106.633 148.294C105.145 147.444 99.7602 144.681 98.0598 144.185C93.9503 150.703 95.4382 160.764 97.493 167.637C97.5638 167.991 107.483 173.943 107.908 169.408C108.05 167.778 106.704 166.716 105.57 165.865C105.499 165.865 105.499 165.795 105.428 165.795C106.845 166.22 108.688 166.503 109.467 165.015C110.459 163.102 107.837 161.331 106.633 160.41C106.279 160.126 105.924 159.914 105.57 159.63C105.995 159.772 106.42 159.914 106.845 159.985C108.404 160.197 109.609 159.276 109.68 157.717C109.75 156.371 108.829 155.308 107.837 154.458C107.837 154.458 107.837 154.458 107.908 154.458C109.325 154.6 110.884 153.821 110.742 152.191C110.53 150.349 107.979 149.073 106.633 148.294Z" fill="#FFCCCA"/>
<path d="M110.884 150.561C108.971 148.719 106.775 147.373 104.366 146.452C103.587 146.169 103.232 147.444 104.012 147.727C105.783 148.436 107.483 149.357 108.971 150.561C109.963 151.341 112.018 152.97 112.231 154.175C112.797 154.954 112.018 156.726 109.326 154.954C108.617 154.529 107.909 154.033 107.271 153.537C105.641 152.404 104.012 151.341 102.453 150.207C101.744 149.711 101.036 150.916 101.744 151.341C103.232 152.333 104.72 153.395 106.208 154.387C107.2 155.096 108.263 155.946 109.326 156.584C109.396 156.655 109.467 156.726 109.538 156.796C111.451 157.717 111.097 160.197 109.042 160.552C108.192 160.693 108.546 162.039 109.396 161.827C111.664 161.402 112.585 159.205 111.876 157.363C112.797 157.292 113.648 156.867 113.931 155.804C114.427 154.033 112.16 151.766 110.884 150.561Z" fill="#FF5852"/>
<path d="M109.821 161.33C108.05 159.772 103.09 156.158 101.248 154.67C100.611 154.103 99.6187 155.095 100.256 155.662C102.028 157.221 106.987 160.834 108.829 162.322C109.538 162.889 110.53 161.897 109.821 161.33Z" fill="#FF5852"/>
<path d="M108.901 160.623C108.263 159.985 107.342 160.977 107.909 161.614C108.688 162.394 109.609 163.669 108.901 164.803C108.05 166.22 106.704 165.37 105.783 164.732C105.712 164.661 105.712 164.661 105.641 164.59C105.57 164.59 105.57 164.519 105.5 164.519C104.012 163.598 102.595 162.677 101.107 161.827C100.398 161.331 99.6897 162.536 100.398 162.961C101.957 163.953 103.516 165.015 105.145 165.936C105.783 166.432 106.421 166.928 106.846 167.637C107.342 168.558 107.413 169.904 106.208 170.258C105.358 170.471 105.712 171.817 106.562 171.534C107.979 171.109 108.759 169.763 108.546 168.345C108.475 167.779 108.263 167.283 107.979 166.858C108.405 166.858 108.759 166.716 109.113 166.503C111.451 165.086 110.53 162.181 108.901 160.623Z" fill="#FF5852"/>
<path d="M270.798 129.518C270.231 128.739 271.152 125.763 270.656 124.913C268.318 126.472 263.5 131.432 264.421 133.982C264.846 135.116 265.626 135.541 266.476 135.541C265.201 137.171 264.35 139.084 265.626 140.713C266.051 141.209 266.476 141.493 266.901 141.705C265.838 142.98 265.201 144.327 265.909 145.673C266.334 146.452 266.83 146.877 267.468 146.948C267.539 147.019 267.61 147.161 267.68 147.232C266.688 148.436 265.909 151.058 267.255 152.333C268.814 153.821 271.294 151.837 272.357 150.491C271.506 143.547 270.656 136.462 270.798 129.518Z" fill="#FFCCCA"/>
<path d="M266.972 139.651C264.775 139.722 264.35 136.817 266.547 136.321C267.397 136.108 267.043 134.833 266.193 135.045C262.862 135.896 263.146 140.288 266.122 140.997C265.909 141.705 265.697 142.343 265.484 143.052C265.201 143.902 266.547 144.256 266.759 143.406C267.043 142.485 267.326 141.564 267.61 140.572C267.751 140.076 267.397 139.58 266.972 139.651Z" fill="#FF5852"/>
<path d="M277.529 131.289C275.758 133.415 274.695 137.595 266.334 139.792C265.484 140.004 265.838 141.28 266.689 141.067C275.262 139.083 276.608 134.478 278.521 132.21C279.017 131.644 278.096 130.652 277.529 131.289Z" fill="#FF5852"/>
<path d="M268.389 147.656C268.743 147.089 269.168 146.593 269.735 146.168C269.523 145.955 269.31 145.885 268.956 146.097C267.751 146.876 266.689 145.672 266.618 144.538C266.476 143.334 267.114 142.2 267.61 141.137C267.964 140.358 266.83 139.65 266.476 140.429C265.626 142.129 264.705 144.255 265.767 146.097C266.193 147.16 267.326 147.727 268.389 147.656Z" fill="#FF5852"/>
<path d="M268.176 146.381C266.759 147.585 266.051 149.357 266.263 151.128C266.334 151.978 267.681 151.978 267.61 151.128C267.468 149.64 268.035 148.294 269.168 147.302C269.806 146.735 268.814 145.814 268.176 146.381Z" fill="#FF5852"/>
<path d="M275.899 126.471C273.561 130.58 269.948 133.627 265.413 135.044C264.563 135.327 264.917 136.603 265.768 136.319C270.585 134.761 274.553 131.501 277.033 127.109C277.529 126.4 276.325 125.762 275.899 126.471Z" fill="#FF5852"/>
<path d="M277.529 138.729C275.12 142.413 271.648 145.035 267.539 146.523C266.689 146.806 267.043 148.152 267.893 147.798C272.357 146.239 276.041 143.334 278.663 139.367C279.159 138.658 278.025 137.949 277.529 138.729Z" fill="#FF5852"/>
<path d="M243.307 155.378C240.969 155.52 238.631 155.661 236.363 155.803C235.655 155.874 235.017 155.874 234.309 155.945C225.24 156.512 216.1 157.008 206.96 157.291C206.322 157.291 205.614 157.362 204.976 157.362C196.19 157.645 187.475 157.787 178.69 157.716H178.477C178.619 157.008 178.76 156.299 178.902 155.661C182.161 139.861 184.783 127.746 185.987 122.573C186.129 121.865 186.271 121.298 186.413 120.873C186.554 120.448 186.625 120.235 186.625 120.023C186.696 119.881 186.696 119.881 186.696 119.881C186.696 119.881 186.767 119.881 186.838 119.881C187.121 119.81 187.971 119.668 189.247 119.385C194.631 118.322 207.456 116.126 217.871 116.693C218.509 116.763 219.075 116.763 219.642 116.834C225.169 117.33 229.774 118.747 231.829 121.723C232.112 122.077 232.396 122.715 232.821 123.636C233.317 124.699 233.884 126.187 234.521 127.958C234.663 128.383 234.876 128.879 235.017 129.375C236.718 134.193 238.843 140.924 241.323 149.072L241.748 150.56C242.315 151.977 242.811 153.607 243.307 155.378Z" fill="#FF5852"/>
<path d="M148.011 104.719C140.996 111.733 134.053 118.677 127.038 125.691C126.896 125.195 126.684 124.77 126.542 124.274C132.848 117.968 139.154 111.591 145.46 105.286C146.381 105.073 147.231 104.86 148.011 104.719Z" fill="white"/>
<path d="M181.028 99.5459C165.582 115.063 150.065 130.579 134.619 146.096C134.478 145.671 134.265 145.175 134.123 144.75C149.073 129.729 164.023 114.779 178.973 99.8293C179.611 99.6876 180.39 99.6168 181.028 99.5459Z" fill="white"/>
<path d="M210.573 97.9176C203.488 105.003 196.403 112.159 189.317 119.244C188.892 119.669 188.467 120.094 188.042 120.52L185.987 122.574C186.129 121.866 186.271 121.299 186.412 120.874C186.2 120.945 185.916 120.945 185.633 121.016L186.625 120.024C186.696 119.953 186.767 119.882 186.838 119.811C194.065 112.513 201.362 105.286 208.589 97.9885C209.227 97.8468 209.865 97.8468 210.573 97.9176Z" fill="white"/>
<path d="M236.151 100.185C230.624 105.711 225.169 111.167 219.642 116.693C218.863 117.473 218.084 118.252 217.304 119.032C204.409 131.927 191.585 144.822 178.69 157.717H178.477C178.619 157.008 178.76 156.3 178.902 155.662C191.16 143.405 203.346 131.147 215.604 118.89C216.383 118.11 217.162 117.331 217.871 116.552C223.397 111.025 228.924 105.428 234.45 99.9014C235.017 99.9722 235.584 100.043 236.151 100.185Z" fill="white"/>
<path d="M234.521 127.747C234.663 128.172 234.875 128.668 235.017 129.164C225.665 138.517 216.312 147.94 206.959 157.293C206.322 157.293 205.613 157.363 204.976 157.363C214.824 147.515 224.673 137.666 234.521 127.747Z" fill="white"/>
<path d="M257.973 106.207C251.384 112.867 244.724 119.456 238.135 126.116C237.71 125.904 237.284 125.691 236.859 125.479C243.449 118.889 250.038 112.3 256.556 105.711C257.052 105.853 257.548 105.994 257.973 106.207Z" fill="white"/>
<path d="M241.323 148.86L241.748 150.348C239.906 152.19 238.135 153.962 236.293 155.804C235.584 155.875 234.947 155.875 234.238 155.946C236.647 153.537 238.985 151.198 241.323 148.86Z" fill="white"/>
<path d="M264.492 125.833C261.445 128.951 257.123 133.06 254.006 136.177C254.36 136.461 254.714 136.744 255.068 137.028C257.69 134.406 261.587 130.651 264.208 128.029C264.279 127.321 264.35 126.612 264.492 125.833Z" fill="white"/>
<path d="M221.556 103.303C221.485 103.445 221.485 103.516 221.414 103.658V103.729C219.926 107.909 214.541 110.672 209.511 109.397C203.913 107.98 200.796 102.737 202.78 98.0603C202.851 98.0603 202.921 98.0603 202.921 98.0603C206.747 97.9186 213.408 97.7769 221.626 98.3438C222.122 99.9025 222.122 101.603 221.556 103.303Z" fill="#FFCCCA"/>
<path d="M212.486 85.874C211.778 86.0866 203.913 104.792 203.913 104.792C203.913 104.792 215.675 105.925 215.887 105.217C216.1 104.508 225.169 88.4956 225.169 88.4956L212.486 85.874Z" fill="#FFCCCA"/>
<path d="M207.881 68.7274C219.784 57.8162 239.198 77.7257 224.744 90.9751C212.699 102.028 193.073 82.3311 207.881 68.7274Z" fill="#FFCCCA"/>
<path d="M216.454 61.4295C215.746 61.7838 215.179 62.4214 214.612 63.0591C213.974 63.2008 213.408 63.4842 212.982 64.051C212.487 64.6887 212.345 65.3972 212.416 66.0349C210.857 66.5309 209.298 67.3811 207.81 68.7273C197.962 77.7964 203.347 89.4871 211.636 93.1005C211.707 92.3212 211.849 91.4709 212.061 90.6916C205.401 89.983 204.268 81.9059 210.715 79.9928C212.416 79.4969 213.195 76.8045 214.045 75.6708C215.887 74.1121 217.517 72.3408 218.934 70.3569C220.422 68.3022 222.406 65.5389 221.272 62.8465C220.493 61.0044 218.367 60.3667 216.454 61.4295Z" fill="#3E53FF"/>
<path d="M222.689 74.6084L226.019 81.3394L229.349 78.7178L222.689 74.6084Z" fill="#FF5852"/>
<path d="M218.509 76.946L218.934 77.8671C219.289 78.6465 220.422 77.938 220.068 77.1586L219.643 76.2375C219.289 75.4581 218.155 76.1667 218.509 76.946Z" fill="black"/>
<path d="M223.752 71.6316L224.177 72.5527C224.531 73.3321 225.665 72.6235 225.311 71.8442L224.886 70.9231C224.531 70.1437 223.398 70.8522 223.752 71.6316Z" fill="black"/>
<path d="M212.557 85.5912C211.849 85.3078 211.211 85.0244 210.503 84.6701C209.723 84.3158 209.015 85.5203 209.794 85.8037C210.503 86.0871 211.14 86.3706 211.849 86.7248C212.628 87.1499 213.337 85.9454 212.557 85.5912Z" fill="#FF5852"/>
<defs>
<linearGradient id="paint0_linear" x1="290.495" y1="208.66" x2="122.32" y2="208.66" gradientUnits="userSpaceOnUse">
<stop stop-color="#3E53FF"/>
<stop offset="1" stop-color="#91A1FF"/>
</linearGradient>
<linearGradient id="paint1_linear" x1="123.496" y1="61.3584" x2="115.41" y2="71.5696" gradientUnits="userSpaceOnUse">
<stop stop-color="#FFDA7B"/>
<stop offset="1" stop-color="#FFAB2E"/>
</linearGradient>
</defs>
</svg>
