<svg width="14" height="18" viewBox="0 0 14 18" fill="none" xmlns="http://www.w3.org/2000/svg">
<path d="M11.7954 10.6665C12.8304 10.6665 13.6695 11.5055 13.6695 12.5406V13.0201C13.6695 13.7653 13.4031 14.486 12.9185 15.0522C11.6107 16.5801 9.62141 17.3341 7.00026 17.3341C4.37871 17.3341 2.39037 16.5798 1.08511 15.0513C0.60198 14.4855 0.336548 13.7659 0.336548 13.022V12.5406C0.336548 11.5055 1.17559 10.6665 2.21061 10.6665H11.7954ZM11.7954 11.9165H2.21061C1.86595 11.9165 1.58655 12.1959 1.58655 12.5406V13.022C1.58655 13.4683 1.74581 13.9001 2.03569 14.2395C3.08011 15.4626 4.71834 16.0841 7.00026 16.0841C9.28219 16.0841 10.9218 15.4626 11.9689 14.2393C12.2597 13.8996 12.4195 13.4672 12.4195 13.0201V12.5406C12.4195 12.1959 12.1401 11.9165 11.7954 11.9165ZM7.00026 0.67041C9.30145 0.67041 11.1669 2.53589 11.1669 4.83708C11.1669 7.13826 9.30145 9.00374 7.00026 9.00374C4.69908 9.00374 2.8336 7.13826 2.8336 4.83708C2.8336 2.53589 4.69908 0.67041 7.00026 0.67041ZM7.00026 1.92041C5.38943 1.92041 4.0836 3.22625 4.0836 4.83708C4.0836 6.44791 5.38943 7.75374 7.00026 7.75374C8.61109 7.75374 9.91693 6.44791 9.91693 4.83708C9.91693 3.22625 8.61109 1.92041 7.00026 1.92041Z" fill="black"/>
</svg>
