<svg width="15" height="16" viewBox="0 0 15 16" fill="none" xmlns="http://www.w3.org/2000/svg">
<path d="M7.15146 0.6875C7.70195 0.693845 8.25028 0.757447 8.7876 0.877279C9.02215 0.929589 9.19757 1.12513 9.22419 1.36397L9.35185 2.50911C9.40963 3.03489 9.85356 3.43313 10.3828 3.43369C10.5251 3.43391 10.6658 3.40428 10.7972 3.34612L11.8477 2.88467C12.0662 2.78869 12.3214 2.84102 12.4845 3.01521C13.2437 3.82598 13.809 4.79836 14.1381 5.85919C14.2091 6.08793 14.1274 6.33653 13.9346 6.47863L13.0035 7.16495C12.7379 7.36009 12.581 7.67 12.581 7.99959C12.581 8.32918 12.7379 8.63909 13.0041 8.83467L13.936 9.52122C14.1288 9.6633 14.2106 9.91193 14.1396 10.1407C13.8107 11.2014 13.2456 12.1737 12.4869 12.9846C12.324 13.1587 12.0689 13.2112 11.8504 13.1155L10.7957 12.6534C10.494 12.5213 10.1474 12.5407 9.86224 12.7055C9.57707 12.8703 9.38729 13.1609 9.35105 13.4883L9.22424 14.6333C9.19809 14.8694 9.02645 15.0636 8.79535 15.1186C7.70902 15.3771 6.57719 15.3771 5.49086 15.1186C5.25976 15.0636 5.08812 14.8694 5.06197 14.6333L4.93535 13.49C4.89816 13.1632 4.70809 12.8735 4.42315 12.7092C4.13822 12.545 3.79224 12.5257 3.49148 12.657L2.43651 13.1192C2.218 13.215 1.96286 13.1625 1.79992 12.9882C1.0408 12.1764 0.475729 11.2029 0.147235 10.1411C0.0764806 9.9124 0.15823 9.66397 0.350969 9.52198L1.28347 8.83499C1.54907 8.63984 1.70594 8.32993 1.70594 8.00034C1.70594 7.67075 1.54907 7.36084 1.28312 7.16544L0.351205 6.47963C0.158181 6.33759 0.0763561 6.08884 0.14736 5.85994C0.476423 4.79911 1.04179 3.82673 1.80093 3.01596C1.96403 2.84177 2.21929 2.78944 2.43777 2.88542L3.48805 3.34679C3.79026 3.47942 4.13768 3.45938 4.42416 3.29202C4.7094 3.12657 4.8993 2.83567 4.93596 2.50823L5.06352 1.36397C5.09015 1.12501 5.26573 0.929406 5.50044 0.877207C6.03839 0.757565 6.5873 0.69399 7.15146 0.6875ZM7.14211 5.74996C5.89946 5.74996 4.89211 6.75732 4.89211 7.99996C4.89211 9.2426 5.89946 10.25 7.14211 10.25C8.38475 10.25 9.39211 9.2426 9.39211 7.99996C9.39211 6.75732 8.38475 5.74996 7.14211 5.74996Z" fill="#A1A4BD"/>
</svg>
