<svg width="657" height="546" viewBox="0 0 657 546" fill="none" xmlns="http://www.w3.org/2000/svg">
<path d="M163.899 228H242.099V149.8L163.899 228Z" fill="#E0E2F0"/>
<path d="M223.2 118.5H151.3V125.5H223.2V118.5Z" fill="#C0CFFF"/>
<path d="M223.2 155.2H151.3V158.1H223.2V155.2Z" fill="#C0CFFF"/>
<path d="M203.1 171.5H151.3V174.4H203.1V171.5Z" fill="#C0CFFF"/>
<path d="M477.3 201.7C468.9 231.4 448.2 256.9 420.5 270.7C405.7 278.1 389.3 282 372.8 282.3C355.7 282.6 339.3 278.1 323.1 273.1C307.5 268.3 291.8 263.1 275.4 262.2C261.3 261.4 247.2 263.9 234 268.8C207.1 278.9 184.6 298.8 170.1 323.6C152.3 353.9 146.2 389.7 147.8 424.5C147.8 425.4 149.3 425.4 149.2 424.5C147.7 392.4 152.8 359.4 167.8 330.7C182 303.5 205.4 281.2 234.4 270.3C248.2 265.1 262.9 262.7 277.6 263.9C294.6 265.2 310.8 271 327 275.9C342.3 280.6 357.9 284.2 374 283.8C389.1 283.4 404.2 279.9 418 273.6C447.6 260.1 469.9 233.4 478.7 202.2C478.9 201.2 477.5 200.8 477.3 201.7Z" fill="#E0E2F0"/>
<path d="M166.6 368C166.9 374.1 161.7 379 155.6 379C149.5 379 145.1 374.6 145.1 368.5C145.1 362.4 149.5 356.9 155.6 356.9C161.7 356.9 166.2 359.4 166.6 368Z" fill="#E0E2F0"/>
<path d="M343.5 277.9C343.7 283.2 339.2 287.5 333.9 287.5C328.6 287.5 324.8 283.7 324.8 278.4C324.8 273.1 328.6 268.3 333.9 268.3C339.2 268.3 343.2 270.4 343.5 277.9Z" fill="#E0E2F0"/>
<path d="M487.3 205C487.5 210.3 483 214.6 477.7 214.6C472.4 214.6 468.6 210.8 468.6 205.5C468.6 200.2 472.4 195.4 477.7 195.4C483 195.4 486.9 197.6 487.3 205Z" fill="#E0E2F0"/>
<path d="M361.5 110.3C350.2 101.9 334.2 104.3 317.9 123.5C313.7 128.5 309.2 130.8 304.8 131.1C304.9 140 305.3 148.9 306.1 157.8C316.8 153.9 327.5 144.5 332.3 138.4C338.9 130 348.1 132.7 351.8 128.8C354.3 126.1 341.3 122.7 343.2 122.1C348.4 120.7 359.4 130 359.4 130C365.4 130 363.5 128.8 363.5 128.8C367.3 128.6 367.6 125.7 367.6 125.7C370.7 124.3 369.3 121.6 369.3 121.6C370.6 119.9 372.7 118.7 361.5 110.3Z" fill="#FFCCCA"/>
<path d="M308.7 130.3C294.7 135.2 280.6 117.7 277.1 94.2998C277.1 94.2998 272.1 129.8 283.3 150.9C289.5 162.5 301 160.9 311.6 155.3C310.1 147 309.6 138.6 308.7 130.3Z" fill="#FFC53E"/>
<path d="M358.7 111.2C358 110.7 357.2 111.9 358 112.4C360.1 113.9 362 115.5 363.9 117.3C364.9 118.2 370.9 123.8 366.9 124.9C366 125.1 366.4 126.5 367.3 126.3C375.6 124.1 360.8 112.7 358.7 111.2Z" fill="#E22A38"/>
<path d="M343 121.4C342.1 121.1 341.7 122.5 342.6 122.8C344.3 123.3 345.9 124 347.4 124.9C348 125.3 349.5 126.2 350.2 126.9C351.1 128 352.7 129.9 348 129C344.7 128.7 340.1 127.8 336.8 127.3C335.9 127.2 335.5 128.6 336.4 128.7C340.2 129.2 344 129.8 347.9 130.3C349.3 130.5 351.3 131 352.2 129.6C354.5 125.8 345.3 122.1 343 121.4Z" fill="#E22A38"/>
<path d="M360.9 124.2C358.5 121.7 355.7 119.5 352.7 117.7C351.9 117.2 351.2 118.5 352 118.9C354.1 120.2 356.2 121.6 358 123.3C359.2 124.4 363.4 127.6 362.3 129.5C361.8 130.3 363.1 131 363.5 130.2C364.8 128 362.3 125.7 360.9 124.2Z" fill="#E22A38"/>
<path d="M366.399 123.7C363.999 119.7 359.699 116.5 355.799 114.2C354.999 113.7 354.299 115 355.099 115.4C357.399 116.8 359.499 118.4 361.499 120.2C362.399 121 363.199 121.9 363.999 122.8C365.199 124.2 366.999 127.9 363.299 127.6C362.399 127.5 362.399 128.9 363.299 129C366.499 129.4 367.999 126.2 366.399 123.7Z" fill="#E22A38"/>
<path d="M277.8 64.6997C277.1 64.8997 266.3 83.6997 266.3 83.6997C266.3 83.6997 277 90.5997 277.3 89.8997C277.6 89.1997 290.9 69.1997 290.9 69.1997L277.8 64.6997Z" fill="#FFCCCA"/>
<path d="M305 58.9998C305 59.5998 305 60.2998 305 60.8998C304.6 68.8998 298.6 76.9998 287.3 75.3998C281 74.4998 277.4 69.9998 276.4 64.6998C276.3 64.3998 276.3 63.9998 276.2 63.5998V63.3998C276.2 62.9998 276.1 62.5998 276.1 62.1998C276.1 61.7998 276.1 61.3998 276.1 60.8998C276.1 60.3998 276.2 59.8998 276.2 59.3998C276.3 58.8998 276.4 58.3998 276.5 57.8998C276.6 57.3998 276.8 56.8998 276.9 56.3998C277.1 55.8998 277.3 55.3998 277.5 54.8998C277.8 54.2998 278.1 53.5998 278.5 52.9998C278.8 52.5998 279 52.1998 279.3 51.7998C279.7 51.1998 280.2 50.6998 280.7 50.1998C283.7 47.2998 288.2 45.5998 294.1 46.4998C294.4 46.4998 294.6 46.5998 294.9 46.5998C295.2 46.6998 295.4 46.6998 295.7 46.7998C295.8 46.7998 295.9 46.8998 296 46.8998C297.2 47.1998 298.3 47.7998 299.3 48.3998C299.4 48.4998 299.6 48.5998 299.7 48.6998C303.1 51.0998 304.8 54.8998 305 58.9998Z" fill="#FFCCCA"/>
<path d="M305 58.9998C305 59.5998 305 60.2998 305 60.8998C303.7 60.7998 302.3 59.4998 301.4 57.9998C298.3 59.4998 294.4 59.0998 293.1 59.1998C291.6 57.2998 289.7 55.2998 287.1 55.6998C283.8 56.1998 282.3 59.5998 282.6 62.8998C280.6 64.3998 276.9 64.5998 276.4 64.6998C276.3 64.3998 276.3 63.9998 276.2 63.5998V63.3998C276.2 62.9998 276.1 62.5998 276.1 62.1998C276.1 61.7998 276.1 61.3998 276.1 60.8998C276.1 60.3998 276.2 59.8998 276.2 59.3998C276.3 58.8998 276.4 58.3998 276.5 57.8998C276.6 57.3998 276.8 56.8998 276.9 56.3998C277.1 55.8998 277.3 55.3998 277.5 54.8998C277.8 54.2998 278.1 53.5998 278.5 52.9998C278.8 52.5998 279 52.1998 279.3 51.7998C279.7 51.1998 280.2 50.6998 280.7 50.1998C283.7 47.2998 288.2 45.5998 294.1 46.4998C294.4 46.4998 294.6 46.5998 294.9 46.5998C295.2 46.6998 295.4 46.6998 295.7 46.7998C295.8 46.7998 295.9 46.8998 296 46.8998C297.1 47.2998 298.2 47.7998 299.3 48.3998C299.4 48.4998 299.6 48.5998 299.7 48.6998C303.1 51.0998 304.8 54.8998 305 58.9998Z" fill="#FF5852"/>
<path d="M300.799 64.0996L296.899 71.2996L302.399 72.2996L300.799 64.0996Z" fill="#FF5852"/>
<path d="M296.4 62.5996L295.9 63.5996C295.5 64.3996 296.9 64.8996 297.3 64.0996L297.8 63.0996C298.1 62.2996 296.8 61.7996 296.4 62.5996Z" fill="black"/>
<path d="M302.9 63.9996L302.4 64.9996C302 65.7996 303.4 66.2996 303.8 65.4996L304.3 64.4996C304.7 63.5996 303.3 63.0996 302.9 63.9996Z" fill="black"/>
<path d="M288 59.4998C288 60.2998 288.1 61.0998 288.1 61.8998C288.1 62.7998 286.7 63.0998 286.7 62.0998C286.7 61.2998 286.6 60.4998 286.6 59.6998C286.5 58.7998 287.9 58.5998 288 59.4998Z" fill="#FF5852"/>
<path d="M276.4 81.1C249.6 72.7 236.1 157.3 234 173.8C234 173.8 288.3 164.1 288.1 163.9C286.6 162.4 287.9 84.7 276.4 81.1Z" fill="#FFC53E"/>
<path d="M237.4 152.9C235.6 162.3 234.5 170 233.9 173.9C233.9 173.9 288.2 164.2 288 164C287.7 163.7 287.5 160.2 287.3 154.7C270.7 154.5 254 154.3 237.4 152.9Z" fill="#475AEA"/>
<path d="M393.9 89.7996C388.2 102.2 382.5 114.6 376.9 126.9C376.5 127.7 377.8 128.5 378.1 127.6C383.8 115.2 389.5 102.8 395.1 90.4996C395.5 89.6996 394.3 88.9996 393.9 89.7996Z" fill="black"/>
<path d="M382.2 96.2997C380.3 90.5997 378.3 84.8997 376.4 79.1997C376.1 78.2997 374.7 78.6997 375 79.5997C376.9 85.2997 378.9 90.9997 380.8 96.6997C381.1 97.4997 382.5 97.1997 382.2 96.2997Z" fill="#FFC53E"/>
<path d="M373.4 106.699L357.5 96.8995C356.7 96.3995 356 97.6995 356.8 98.0995L372.7 107.899C373.5 108.399 374.2 107.199 373.4 106.699Z" fill="#FFC53E"/>
<path d="M376.1 129.8H326.3C325.4 129.8 325.4 131.2 326.3 131.2H376.1C377 131.2 377 129.8 376.1 129.8Z" fill="black"/>
<path d="M282.5 62.3997C282.5 59.2997 281.7 56.3996 282 53.2996C281.7 53.3996 281.5 53.4996 281.5 53.4996C270.3 48.0996 246.4 54.0997 244.5 67.3997C243.5 74.1997 236.7 75.7996 228.2 76.5996C213.1 77.7996 209 101.1 226.9 104.7C242.9 108 258.2 100.9 267.6 90.2997C270.1 86.9997 271.5 83.2996 272.9 79.4996C280.4 78.5996 286.4 70.4997 282.5 62.3997Z" fill="#FF5852"/>
<path d="M251.1 349.4C248.5 344.9 246.9 338.1 246.6 327.3C232.8 326 219 324.2 205.2 322.7C203.3 332.8 201.6 342.1 200.2 350C217.1 351.7 234.2 351.4 251.1 349.4Z" fill="#FFCCCA"/>
<path d="M259.4 340.6C257.3 328.2 264.7 206.3 266.7 184.4C267.8 172.3 267.7 163 268.1 159.1C268.3 157.4 268.2 156.6 267.8 156.6C265.1 156.6 235.7 166.6 235.7 166.6C225.6 212.7 201.9 288.4 193.2 335.8C206.2 337.4 257.4 340.7 259.4 340.6Z" fill="url(#paint0_linear)"/>
<path d="M258.3 356.1C254.8 354.4 252.1 351.9 250.1 347.5C246.3 347.6 242.6 347.7 238.8 347.7C226.1 347.9 213.3 348.4 200.7 346.8C198.5 358.9 196.8 368.3 195.9 373.7H211C213.1 370.2 215.4 366.5 215.4 366.5L217.3 373.7H273C272.8 373.7 270.1 361.7 258.3 356.1Z" fill="black"/>
<path d="M428.5 273.9C421.5 271.5 414.9 266.3 409.5 261.2C400 271.2 390.3 281 380.3 290.5C386.8 298.3 392.7 305.6 397.4 311.7C408.1 299.3 418.5 286.8 428.5 273.9Z" fill="#FFCCCA"/>
<path d="M420.9 265.4C414.4 260.6 408.7 254.6 404.6 250.8C384.5 232.1 338.2 191.8 272.8 155.1L268.1 159.1L251.3 173.1C251.3 173.1 256 177 263.7 183.4C278.6 195.7 364 289.1 380.2 309C390.3 298.7 411.2 276.1 420.9 265.4Z" fill="url(#paint1_linear)"/>
<path d="M423.201 317.3L464.801 281.7C464.801 281.7 459.001 269.5 441.801 274.5C435.901 276.2 430.001 274.9 424.501 272.1C414.201 283.6 403.401 294.5 392.601 305.6C403.201 318.9 410.101 328.4 410.101 328.4L418.301 321.4C416.801 318.3 415.201 314.6 415.201 313.8C415.201 312.9 419.801 315.1 423.201 317.3Z" fill="black"/>
<path d="M273.4 178.5C271.3 180.1 269.2 181.7 267.2 183.3C266.5 183.9 267.2 185.1 267.9 184.5C270 182.9 272.1 181.3 274.1 179.7C274.8 179.2 274.1 177.9 273.4 178.5Z" fill="white"/>
<path d="M429.3 276.7C428.3 279.9 427.4 283.1 426.4 286.3C426.1 287.2 427.5 287.6 427.8 286.7C428.8 283.5 429.7 280.3 430.7 277.1C431 276.2 429.6 275.8 429.3 276.7Z" fill="white"/>
<path d="M251.4 350.7C247.2 352 243.1 353.2 238.9 354.5C238 354.8 238.4 356.2 239.3 355.9C243.5 354.6 247.6 353.4 251.8 352.1C252.7 351.8 252.3 350.5 251.4 350.7Z" fill="white"/>
<path d="M254.1 328.1C236.2 326.2 218.4 324.3 200.5 322.5C199.6 322.4 199.6 323.8 200.5 323.9C218.4 325.8 236.2 327.7 254.1 329.5C255 329.7 255 328.2 254.1 328.1Z" fill="white"/>
<path d="M409.1 262C398.2 272.9 387.3 283.9 376.5 294.8C375.8 295.5 376.9 296.5 377.5 295.8C388.4 284.9 399.3 273.9 410.1 263C410.8 262.3 409.8 261.3 409.1 262Z" fill="white"/>
<path d="M357.2 137.2C357.2 137.2 371.9 136.3 371.1 133.4C370.4 130.8 344.7 129.8 330.1 134.6C325.6 136.1 319.6 139 313.3 141.4C314.5 149.3 316.2 157.1 317.8 165C345.2 157.3 343.4 152.6 355.1 154.1C368.8 155.8 377.6 150.5 376.9 147.2C376.9 147.2 379.5 146.5 379.8 144.1C379.8 144.1 383.2 143.1 383.2 140C383 136.7 357.2 137.2 357.2 137.2Z" fill="#FFCCCA"/>
<path d="M316.1 140.2C301.1 146.3 283 151.3 278.5 127.8C272.5 96.1998 263.9 83.8998 260.5 103.4C251.7 154.3 257.4 187.8 302.4 177.7C310.7 175.9 317.2 174.1 322.6 172.5C321.1 164.6 317.8 148.1 316.1 140.2Z" fill="#FFC53E"/>
<path d="M381.599 140.1C381.399 144.9 367.399 143.1 364.299 143.1C363.399 143.1 363.399 144.5 364.299 144.5C368.799 144.5 373.799 145 378.199 144.4C376.099 149.3 365.299 148.3 361.099 148C360.199 147.9 360.199 149.4 361.099 149.4C364.399 149.7 370.899 150.3 375.299 148.6C371.099 152.7 364.699 152.2 359.199 151.6C358.299 151.5 358.299 152.9 359.199 153C365.899 153.7 373.199 154 377.599 148C377.799 147.7 377.799 147.5 377.599 147.3C378.699 146.5 379.499 145.4 379.799 143.9C381.599 143.3 382.799 142 382.899 139.9C383.099 139.2 381.599 139.2 381.599 140.1Z" fill="#FF5852"/>
<path d="M338.5 131.8C331 132.9 324 135.7 317.8 140.2C317 140.7 318 141.8 318.7 141.3C324.7 137 331.4 134.3 338.7 133.3C339.6 133.1 339.4 131.7 338.5 131.8Z" fill="#FF5852"/>
<path d="M306.8 142.6C301.1 146 293.1 149.2 289.9 141C287.9 135.9 286.9 130.2 286.2 124.7C286.1 123.8 284.7 124.2 284.8 125.1C285.4 129.5 286.3 133.9 287.5 138.2C288.3 140.9 289.2 143.9 291.4 145.9C296.3 150.2 303 146.7 307.6 143.9C308.4 143.4 307.6 142.2 306.8 142.6Z" fill="white"/>
<path d="M260.1 106.5C260.3 105.6 258.9 105.2 258.7 106.1C256.2 121 255.7 136 257.3 151C257.4 151.9 258.8 151.9 258.7 151C257.1 136.2 257.5 121.2 260.1 106.5Z" fill="white"/>
<path d="M277.1 373H189.4V467.2H277.1V373Z" fill="#C0CFFF"/>
<path d="M379.2 321.9H291.5V467.1H379.2V321.9Z" fill="#E0E2F0"/>
<path d="M490.601 467.9H487.001C486.601 467.9 486.301 467.6 486.301 467.2C486.301 466.8 486.601 466.5 487.001 466.5H489.901V463.6C489.901 463.2 490.201 462.9 490.601 462.9C491.001 462.9 491.301 463.2 491.301 463.6V467.2C491.401 467.6 491.001 467.9 490.601 467.9Z" fill="#C0CFFF"/>
<path d="M490.6 456.9C490.2 456.9 489.9 456.6 489.9 456.2V448.8C489.9 448.4 490.2 448.1 490.6 448.1C491 448.1 491.3 448.4 491.3 448.8V456.2C491.4 456.6 491 456.9 490.6 456.9ZM490.6 442.2C490.2 442.2 489.9 441.9 489.9 441.5V434.1C489.9 433.7 490.2 433.4 490.6 433.4C491 433.4 491.3 433.7 491.3 434.1V441.5C491.4 441.9 491 442.2 490.6 442.2ZM490.6 427.5C490.2 427.5 489.9 427.2 489.9 426.8V419.4C489.9 419 490.2 418.7 490.6 418.7C491 418.7 491.3 419 491.3 419.4V426.8C491.4 427.2 491 427.5 490.6 427.5ZM490.6 412.8C490.2 412.8 489.9 412.5 489.9 412.1V404.7C489.9 404.3 490.2 404 490.6 404C491 404 491.3 404.3 491.3 404.7V412.1C491.4 412.5 491 412.8 490.6 412.8ZM490.6 398.1C490.2 398.1 489.9 397.8 489.9 397.4V390C489.9 389.6 490.2 389.3 490.6 389.3C491 389.3 491.3 389.6 491.3 390V397.4C491.4 397.8 491 398.1 490.6 398.1ZM490.6 383.4C490.2 383.4 489.9 383.1 489.9 382.7V375.3C489.9 374.9 490.2 374.6 490.6 374.6C491 374.6 491.3 374.9 491.3 375.3V382.7C491.4 383 491 383.4 490.6 383.4ZM490.6 368.6C490.2 368.6 489.9 368.3 489.9 367.9V360.5C489.9 360.1 490.2 359.8 490.6 359.8C491 359.8 491.3 360.1 491.3 360.5V367.9C491.4 368.3 491 368.6 490.6 368.6ZM490.6 353.9C490.2 353.9 489.9 353.6 489.9 353.2V345.8C489.9 345.4 490.2 345.1 490.6 345.1C491 345.1 491.3 345.4 491.3 345.8V353.2C491.4 353.6 491 353.9 490.6 353.9Z" fill="#C0CFFF"/>
<path d="M490.601 339.2C490.201 339.2 489.901 338.9 489.901 338.5V335.6H487.001C486.601 335.6 486.301 335.3 486.301 334.9C486.301 334.5 486.601 334.2 487.001 334.2H490.601C491.001 334.2 491.301 334.5 491.301 334.9V338.5C491.401 338.9 491.001 339.2 490.601 339.2Z" fill="#C0CFFF"/>
<path d="M479.7 335.6H472.4C472 335.6 471.7 335.3 471.7 334.9C471.7 334.5 472 334.2 472.4 334.2H479.7C480.1 334.2 480.4 334.5 480.4 334.9C480.4 335.3 480.1 335.6 479.7 335.6ZM465.1 335.6H457.8C457.4 335.6 457.1 335.3 457.1 334.9C457.1 334.5 457.4 334.2 457.8 334.2H465.1C465.5 334.2 465.8 334.5 465.8 334.9C465.8 335.3 465.5 335.6 465.1 335.6ZM450.4 335.6H443.1C442.7 335.6 442.4 335.3 442.4 334.9C442.4 334.5 442.7 334.2 443.1 334.2H450.4C450.8 334.2 451.1 334.5 451.1 334.9C451.2 335.3 450.8 335.6 450.4 335.6ZM435.8 335.6H428.5C428.1 335.6 427.8 335.3 427.8 334.9C427.8 334.5 428.1 334.2 428.5 334.2H435.8C436.2 334.2 436.5 334.5 436.5 334.9C436.5 335.3 436.2 335.6 435.8 335.6ZM421.2 335.6H413.9C413.5 335.6 413.2 335.3 413.2 334.9C413.2 334.5 413.5 334.2 413.9 334.2H421.2C421.6 334.2 421.9 334.5 421.9 334.9C421.9 335.3 421.6 335.6 421.2 335.6Z" fill="#C0CFFF"/>
<path d="M402.9 339.2C402.5 339.2 402.2 338.9 402.2 338.5V334.9C402.2 334.5 402.5 334.2 402.9 334.2H406.5C406.9 334.2 407.2 334.5 407.2 334.9C407.2 335.3 406.9 335.6 406.5 335.6H403.6V338.5C403.6 338.9 403.3 339.2 402.9 339.2Z" fill="#C0CFFF"/>
<path d="M402.9 456.9C402.5 456.9 402.2 456.6 402.2 456.2V448.8C402.2 448.4 402.5 448.1 402.9 448.1C403.3 448.1 403.6 448.4 403.6 448.8V456.2C403.6 456.6 403.3 456.9 402.9 456.9ZM402.9 442.2C402.5 442.2 402.2 441.9 402.2 441.5V434.1C402.2 433.7 402.5 433.4 402.9 433.4C403.3 433.4 403.6 433.7 403.6 434.1V441.5C403.6 441.9 403.3 442.2 402.9 442.2ZM402.9 427.5C402.5 427.5 402.2 427.2 402.2 426.8V419.4C402.2 419 402.5 418.7 402.9 418.7C403.3 418.7 403.6 419 403.6 419.4V426.8C403.6 427.2 403.3 427.5 402.9 427.5ZM402.9 412.8C402.5 412.8 402.2 412.5 402.2 412.1V404.7C402.2 404.3 402.5 404 402.9 404C403.3 404 403.6 404.3 403.6 404.7V412.1C403.6 412.5 403.3 412.8 402.9 412.8ZM402.9 398.1C402.5 398.1 402.2 397.8 402.2 397.4V390C402.2 389.6 402.5 389.3 402.9 389.3C403.3 389.3 403.6 389.6 403.6 390V397.4C403.6 397.8 403.3 398.1 402.9 398.1ZM402.9 383.4C402.5 383.4 402.2 383.1 402.2 382.7V375.3C402.2 374.9 402.5 374.6 402.9 374.6C403.3 374.6 403.6 374.9 403.6 375.3V382.7C403.6 383 403.3 383.4 402.9 383.4ZM402.9 368.6C402.5 368.6 402.2 368.3 402.2 367.9V360.5C402.2 360.1 402.5 359.8 402.9 359.8C403.3 359.8 403.6 360.1 403.6 360.5V367.9C403.6 368.3 403.3 368.6 402.9 368.6ZM402.9 353.9C402.5 353.9 402.2 353.6 402.2 353.2V345.8C402.2 345.4 402.5 345.1 402.9 345.1C403.3 345.1 403.6 345.4 403.6 345.8V353.2C403.6 353.6 403.3 353.9 402.9 353.9Z" fill="#C0CFFF"/>
<path d="M406.5 467.9H402.9C402.5 467.9 402.2 467.6 402.2 467.2V463.6C402.2 463.2 402.5 462.9 402.9 462.9C403.3 462.9 403.6 463.2 403.6 463.6V466.5H406.5C406.9 466.5 407.2 466.8 407.2 467.2C407.2 467.6 406.9 467.9 406.5 467.9Z" fill="#C0CFFF"/>
<path d="M479.7 467.9H472.4C472 467.9 471.7 467.6 471.7 467.2C471.7 466.8 472 466.5 472.4 466.5H479.7C480.1 466.5 480.4 466.8 480.4 467.2C480.4 467.6 480.1 467.9 479.7 467.9ZM465.1 467.9H457.8C457.4 467.9 457.1 467.6 457.1 467.2C457.1 466.8 457.4 466.5 457.8 466.5H465.1C465.5 466.5 465.8 466.8 465.8 467.2C465.8 467.6 465.5 467.9 465.1 467.9ZM450.4 467.9H443.1C442.7 467.9 442.4 467.6 442.4 467.2C442.4 466.8 442.7 466.5 443.1 466.5H450.4C450.8 466.5 451.1 466.8 451.1 467.2C451.2 467.6 450.8 467.9 450.4 467.9ZM435.8 467.9H428.5C428.1 467.9 427.8 467.6 427.8 467.2C427.8 466.8 428.1 466.5 428.5 466.5H435.8C436.2 466.5 436.5 466.8 436.5 467.2C436.5 467.6 436.2 467.9 435.8 467.9ZM421.2 467.9H413.9C413.5 467.9 413.2 467.6 413.2 467.2C413.2 466.8 413.5 466.5 413.9 466.5H421.2C421.6 466.5 421.9 466.8 421.9 467.2C421.9 467.6 421.6 467.9 421.2 467.9Z" fill="#C0CFFF"/>
<path d="M342.1 467.2L291.5 416.6V418.6L340 467.2H342.1Z" fill="white"/>
<path d="M299.7 467.2L291.5 459V461L297.7 467.2H299.7Z" fill="white"/>
<path d="M379.2 461.9V464L291.5 376.3V374.2L379.2 461.9Z" fill="white"/>
<path d="M379.2 419.6V421.6L291.5 333.9V331.9L379.2 419.6Z" fill="white"/>
<path d="M379.2 377.2V379.2L321.9 321.9H324L379.2 377.2Z" fill="white"/>
<path d="M379.201 334.8V336.9L364.301 321.9H366.301L379.201 334.8Z" fill="white"/>
<path d="M261.3 373H259.9V467.2H261.3V373Z" fill="white"/>
<path d="M242.1 373H240.7V467.2H242.1V373Z" fill="white"/>
<path d="M222.9 373H221.5V467.2H222.9V373Z" fill="white"/>
<path d="M203.701 373H202.301V467.2H203.701V373Z" fill="white"/>
<path d="M277.1 386.9H189.4V388.3H277.1V386.9Z" fill="white"/>
<path d="M277.1 460H189.4V461.4H277.1V460Z" fill="white"/>
<path d="M277.1 441.7H189.4V443.1H277.1V441.7Z" fill="white"/>
<path d="M277.1 423.4H189.4V424.8H277.1V423.4Z" fill="white"/>
<path d="M277.1 405.1H189.4V406.5H277.1V405.1Z" fill="white"/>
<defs>
<linearGradient id="paint0_linear" x1="268.2" y1="235.72" x2="180.246" y2="235.72" gradientUnits="userSpaceOnUse">
<stop stop-color="#3E53FF"/>
<stop offset="1" stop-color="#91A1FF"/>
</linearGradient>
<linearGradient id="paint1_linear" x1="420.9" y1="221.277" x2="222.005" y2="221.277" gradientUnits="userSpaceOnUse">
<stop stop-color="#3E53FF"/>
<stop offset="1" stop-color="#91A1FF"/>
</linearGradient>
</defs>
</svg>
