<svg width="214" height="237" viewBox="0 0 214 237" fill="none" xmlns="http://www.w3.org/2000/svg">
<path d="M148.455 29.7764H105.805V129.926H148.455V29.7764Z" fill="#E0E2F0"/>
<path d="M195.674 145.243H95.3119V9.84766H195.674V145.243ZM95.9889 144.566H194.997V10.5246H95.9889V144.566Z" fill="black"/>
<path d="M190.427 15.5604C189.792 16.2797 188.607 16.1951 187.93 15.4758C187.253 14.7565 187.296 13.7834 188.015 13.1064C188.734 12.4294 189.834 12.3448 190.511 13.0641C191.188 13.7834 191.315 14.5873 190.427 15.5604Z" fill="#90A1FF"/>
<path d="M138.3 35.1938H110.544C110.121 35.1938 110.121 35.8708 110.544 35.8708H138.3C138.723 35.8708 138.723 35.1938 138.3 35.1938Z" fill="white"/>
<path d="M138.3 39.085H110.544C110.121 39.085 110.121 39.7619 110.544 39.7619H138.3C138.723 39.7619 138.723 39.085 138.3 39.085Z" fill="white"/>
<path d="M138.3 120.957H110.544C110.121 120.957 110.121 121.634 110.544 121.634H138.3C138.723 121.634 138.723 120.957 138.3 120.957Z" fill="white"/>
<path d="M109.782 26.6447L107.244 24.1061C106.947 23.8099 106.44 24.2753 106.778 24.5715L109.317 27.1102C109.613 27.4487 110.078 26.9409 109.782 26.6447Z" fill="#FF5852"/>
<path d="M107.244 27.1109L109.782 24.5722C110.078 24.276 109.613 23.7683 109.317 24.1068L106.778 26.6455C106.44 26.9416 106.905 27.4494 107.244 27.1109Z" fill="#FF5852"/>
<path d="M195.335 18.0571H95.6503V18.7341H195.335V18.0571Z" fill="black"/>
<path d="M184.8 14.3335H181.415C180.992 14.3335 180.992 15.0105 181.415 15.0105H184.8C185.223 15.0105 185.223 14.3335 184.8 14.3335Z" fill="#90A1FF"/>
<path d="M213.302 197.685C202.513 201.916 191.047 197.008 182.161 190.788C177.634 187.615 173.403 184.018 168.96 180.676C164.729 177.502 160.287 174.625 155.548 172.256C146.451 167.686 136.55 164.724 126.438 163.582C121.276 162.99 116.072 162.863 110.867 163.201C109.937 163.244 109.006 163.328 108.075 163.413C101.982 156.262 90.6428 156.22 82.0536 156.939C63.5214 158.462 45.6662 167.559 33.6499 181.776C32.169 183.511 30.815 185.33 29.5457 187.192C29.2919 187.53 29.8842 187.911 30.1381 187.53C40.1658 172.933 55.9478 162.651 73.253 158.928C77.611 157.997 82.0113 157.489 86.4963 157.405C91.3197 157.32 96.4394 157.574 101.009 159.351C103.336 160.239 105.579 161.678 107.313 163.54C103.336 163.963 99.4011 164.64 95.6778 165.994C87.8926 168.744 79.6419 176.529 82.8152 185.584C84.0423 189.18 87.004 192.227 90.8543 192.777C95.1277 193.411 99.0626 190.957 102.024 188.122C108.202 182.241 114.845 172.129 108.625 164.09C125.295 162.397 142.685 166.121 157.283 173.991C166.041 178.729 173.318 185.414 181.4 191.126C188.889 196.415 197.816 200.816 207.21 199.969C209.367 199.758 211.483 199.25 213.514 198.446C213.895 198.15 213.725 197.515 213.302 197.685ZM110.317 169.506C111.164 174.879 107.863 179.956 104.69 183.934C101.94 187.445 98.2587 191.126 93.6892 191.93C88.6965 192.777 84.4654 189.222 83.1537 184.611C81.7998 179.787 84.0423 174.879 87.4694 171.494C91.0659 167.94 95.9316 166.163 100.797 165.148C103.082 164.682 105.409 164.301 107.779 164.047C109.048 165.613 109.979 167.432 110.317 169.506Z" fill="white"/>
<path d="M200.581 46.7007C200.539 46.7007 200.497 46.7007 200.455 46.7007L152.559 29.2686C152.432 29.2263 152.347 29.0994 152.347 28.9724C152.347 28.8455 152.389 28.7186 152.516 28.6339L203.247 0.0317332C203.374 -0.0105777 203.501 -0.0105777 203.586 0.0317332C203.67 0.116355 203.755 0.200977 203.755 0.32791L200.878 46.3622C200.878 46.4892 200.835 46.5738 200.708 46.6161C200.708 46.6584 200.666 46.7007 200.581 46.7007ZM153.532 28.8455L200.285 45.8545L203.078 0.920265L153.532 28.8455Z" fill="white"/>
<path d="M178.808 57.2773V147.273C178.808 147.696 178.131 147.696 178.131 147.273V57.2773C178.131 56.8542 178.808 56.8542 178.808 57.2773Z" fill="#C0CFFF"/>
<path d="M162.814 50.2962V62.4818H199.244C199.244 62.4818 201.529 41.7071 190.528 41.7071L170.515 41.2417C168.399 41.2417 166.495 42.2572 165.099 43.9073C163.66 45.5151 162.814 47.7999 162.814 50.2962Z" fill="#90A1FF"/>
<path d="M162.73 50.2964V62.482H173.984V50.2964C173.984 45.3037 171.446 41.2842 168.357 41.2842C166.792 41.2842 165.395 42.2996 164.38 43.9498C163.364 45.5153 162.73 47.8001 162.73 50.2964Z" fill="black"/>
<path d="M49.4632 146.935H194.251C194.674 146.935 194.674 147.612 194.251 147.612H49.4209C48.9978 147.612 48.9977 146.935 49.4632 146.935Z" fill="#C0CFFF"/>
<path d="M179.273 48.646H193.997V57.1082H179.273V48.646Z" fill="white"/>
<path d="M85.8344 69.5917C82.6611 64.8106 79.4877 59.9871 76.2721 55.206C76.0182 54.8252 75.4259 55.1637 75.6798 55.5445C78.8531 60.3256 82.0264 65.1491 85.242 69.9302C85.4959 70.311 86.0883 69.9725 85.8344 69.5917Z" fill="#FFC53E"/>
<path d="M82.4072 73.3148L71.6602 68.576C71.2794 68.4067 70.941 68.9991 71.3218 69.1683L82.0687 73.9072C82.4918 74.0764 82.8303 73.4841 82.4072 73.3148Z" fill="#FFC53E"/>
<path d="M82.15 126.846C84.2233 119.061 84.731 111.656 84.858 110.514C85.2388 107.256 88.8784 101.72 88.8784 101.72L80.6278 96.0078L78.9353 97.2771L76.9035 98.5401C74.8302 101.671 73.8148 109.16 72.5031 116.691C75.4226 120.33 78.8075 123.546 82.15 126.846Z" fill="#FFCCCA"/>
<path d="M84.6464 126.295C81.9808 137.55 73.3071 153.29 60.6984 149.693C55.9173 148.339 52.2785 145.801 49.5283 142.754C44.6202 137.296 42.5047 130.273 41.6162 125.449C41.2777 123.63 41.1084 122.107 41.0238 121.133C40.9815 120.372 40.9392 119.949 40.9392 119.949C42.3778 120.33 43.774 121.218 45.1703 122.403C51.4746 127.819 57.0174 139.327 64.1679 136.662C69.2452 134.758 71.1492 124.561 72.7993 114.956C75.8457 118.426 81.3039 123.08 84.6464 126.295Z" fill="#FFC53E"/>
<path d="M79.8655 104.168C79.7809 103.829 79.2732 103.956 79.3578 104.295C79.8232 106.283 79.9078 108.272 79.6539 110.303C79.6116 110.641 80.1617 110.641 80.204 110.303C80.4579 108.23 80.3309 106.199 79.8655 104.168Z" fill="#FF5852"/>
<path d="M75.9305 103.533C75.6766 104.337 75.465 105.098 75.2112 105.902C75.1265 106.241 75.6343 106.367 75.7189 106.029C75.9728 105.225 76.1843 104.463 76.4382 103.66C76.5651 103.321 76.0574 103.194 75.9305 103.533Z" fill="#FF5852"/>
<path d="M48.5995 236.137L27.9941 236.095L27.6979 234.487L24.9054 236.137H18.601C18.601 236.137 18.728 235.079 18.8972 233.472C18.8972 233.302 18.9395 233.133 18.9395 232.922C19.278 229.537 19.7858 224.29 19.955 221.328C26.1747 220.821 30.5327 223.825 36.7948 223.698C37.5564 228.606 38.318 227.633 41.449 228.987C44.4531 230.298 46.1878 231.695 47.2033 232.922C47.3725 233.091 47.4994 233.302 47.6264 233.472C48.7265 235.037 48.5995 236.137 48.5995 236.137Z" fill="black"/>
<path d="M83.6329 220.82L65.5661 230.721L64.5507 229.451L62.8582 232.202L57.3578 235.248C57.3578 235.248 56.8924 233.894 56.2577 231.905C56.2154 231.736 56.1308 231.567 56.0885 231.398C54.9884 228.055 53.5075 223.189 52.6613 219.974C57.8655 216.547 61.8428 218.704 67.2586 215.616C70.2626 219.551 70.5165 218.324 73.9014 218.027C77.4132 217.731 79.698 218.197 81.1789 218.831C81.3904 218.916 81.602 219.043 81.7712 219.128C83.2521 219.889 83.6329 220.82 83.6329 220.82Z" fill="black"/>
<path fill-rule="evenodd" clip-rule="evenodd" d="M42.0013 146.437L42.0436 145.083L39.2087 146.056L39.2067 146.057L37.9383 145.888L38.0651 146.48L31.5928 148.722L31.5504 148.764L31.4658 149.356L29.3503 161.669L29.2657 162.304L27.1501 174.616L27.0655 175.251L24.9499 187.563L24.8653 188.198L22.7498 200.51L22.6651 201.145L20.5496 213.458L20.465 214.092L18.6456 224.839H40.1396L40.2665 218.662L40.3088 217.943L40.6473 203.938V203.176L40.9858 189.129V188.367L41.3243 174.32L41.3666 173.558L41.5357 166.076L43.1848 175.379L43.3541 176.309L46.4428 193.784L46.612 194.757L49.743 212.231L49.87 213.12L52.1125 225.644L58.8399 222.048L59.3476 221.794L68.783 216.759L68.9945 216.674L68.783 216.039L62.9018 195.772L62.6056 194.672L56.7244 174.448L56.3859 173.39L50.547 153.165L50.2085 152.108L48.8545 147.411L44.9196 146.861L44.0311 146.734L42.0012 146.438L42.0013 146.437Z" fill="url(#paint0_linear)"/>
<path d="M40.3066 217.943V218.705C34.4254 212.866 28.5442 207.027 22.6629 201.188L22.7899 200.553C28.6288 206.308 34.4677 212.104 40.3066 217.943Z" fill="white"/>
<path d="M32.0138 224.839H31.2522C27.6558 221.243 24.0594 217.689 20.4629 214.093L20.5899 213.416C24.3978 217.266 28.2058 221.032 32.0138 224.839Z" fill="white"/>
<path d="M24.9479 187.563C30.0252 192.641 35.3987 197.972 40.6453 203.176V203.896C35.3564 198.649 29.9829 193.275 24.8633 188.198L24.9479 187.563Z" fill="white"/>
<path d="M59.3465 221.794L58.8388 222.047C56.0463 219.255 53.0422 216.251 49.8689 213.12L49.6996 212.189C53.1268 215.574 56.3847 218.832 59.3465 221.794Z" fill="white"/>
<path d="M27.1481 174.617C31.5484 178.975 36.2449 183.671 40.9838 188.368V189.129C36.2026 184.391 31.4638 179.652 27.0634 175.251L27.1481 174.617Z" fill="white"/>
<path d="M68.9935 216.673L68.782 216.8C62.4353 210.496 54.6078 202.711 46.6533 194.756L46.4841 193.825C54.5232 201.822 62.393 209.65 68.8243 216.038L68.9935 216.673Z" fill="white"/>
<path d="M29.3481 161.669C33.3253 165.647 37.3449 169.624 41.3221 173.601V174.363C37.3026 170.343 33.283 166.366 29.2212 162.346L29.3481 161.669Z" fill="white"/>
<path d="M62.9006 195.771C56.3847 189.297 49.8688 182.824 43.3529 176.35L43.1837 175.419C49.6573 181.851 56.1308 188.282 62.5621 194.713L62.9006 195.771Z" fill="white"/>
<path d="M56.7234 174.447C51.7307 169.454 46.6957 164.504 41.703 159.511C41.1529 159.003 40.6452 158.453 40.0952 157.903C37.218 155.026 34.3409 152.191 31.4637 149.314C31.3791 149.229 31.2945 149.145 31.2098 149.06C30.956 148.806 31.3368 148.426 31.5907 148.679C34.3409 151.43 37.1334 154.18 39.9259 156.93C40.5183 157.522 41.1106 158.115 41.703 158.707C46.611 163.573 51.4768 168.439 56.3849 173.304L56.7234 174.447Z" fill="white"/>
<path d="M50.5459 153.164C48.388 151.006 46.2302 148.891 44.0723 146.733L44.9608 146.86C46.7379 148.595 48.4726 150.372 50.2497 152.106L50.5459 153.164Z" fill="white"/>
<path d="M45.2992 155.999C44.1145 156.888 42.9298 157.819 41.7451 158.707C41.4912 158.919 41.7451 159.384 41.9989 159.173C43.1836 158.284 44.3684 157.353 45.5531 156.465C45.8492 156.253 45.5954 155.788 45.2992 155.999Z" fill="white"/>
<path d="M41.6183 158.962V164.801C41.6183 165.139 42.1684 165.139 42.1684 164.801V158.962C42.1684 158.623 41.6183 158.623 41.6183 158.962Z" fill="white"/>
<path d="M35.9486 226.786C35.1024 227.294 34.2562 227.759 33.4099 228.267C33.1138 228.436 33.3676 228.902 33.6638 228.732C34.51 228.225 35.3562 227.759 36.2025 227.251C36.4986 227.082 36.2448 226.617 35.9486 226.786Z" fill="white"/>
<path d="M68.8241 218.239C68.5703 219.212 68.3587 220.185 68.1048 221.159C68.0202 221.497 68.528 221.624 68.6126 221.286C68.8664 220.312 69.078 219.339 69.3319 218.366C69.4165 218.028 68.9088 217.901 68.8241 218.239Z" fill="white"/>
<path d="M81.7712 219.085C73.2667 223.359 64.7199 227.632 56.2154 231.905C56.1731 231.736 56.0885 231.567 56.0462 231.398C64.4237 227.209 72.8013 223.02 81.1366 218.789C81.3904 218.874 81.602 219.001 81.7712 219.085Z" fill="white"/>
<path d="M47.6265 233.471H18.8973C18.8973 233.302 18.9396 233.132 18.9396 232.921H47.2033C47.3726 233.09 47.4995 233.259 47.6265 233.471Z" fill="white"/>
<path d="M50.673 148L32.2254 149.058L30.3214 149.185C33.0716 133.192 35.2295 124.433 38.9105 121.937C39.0798 121.81 39.2913 121.683 39.4605 121.598C39.926 121.345 40.476 121.218 40.9837 121.175C41.0684 121.175 41.1107 121.175 41.1953 121.175C42.5493 121.133 43.6916 122.021 44.6225 123.46C47.4996 127.691 50.673 148 50.673 148Z" fill="#FFC53E"/>
<path d="M49.2767 139.709C48.4728 136.028 47.7112 132.346 46.9073 128.665C46.8227 128.327 46.315 128.454 46.3996 128.792C47.2035 132.473 47.9651 136.154 48.769 139.836C48.8113 140.174 49.3614 140.047 49.2767 139.709Z" fill="white"/>
<path d="M13.1006 158.367C10.0965 162.429 7.43093 165.56 5.3577 166.787C-3.06219 171.822 0.280379 171.737 4.2153 170.298C2.48055 171.06 -0.058108 172.414 0.449624 173.514C0.915044 174.614 3.53832 173.768 5.18845 173.049C3.49601 173.853 0.915045 175.291 1.16891 176.391C1.54971 178.041 7.89635 175.291 7.89635 175.291C7.89635 175.291 1.71895 177.999 2.269 179.649C2.81904 181.299 14.243 176.391 15.8931 174.022C15.8931 174.022 11.9159 180.918 13.7353 181.299C15.1738 181.595 20.4204 172.752 23.1283 167.21C19.6588 164.375 16.147 161.625 13.1006 158.367Z" fill="#FFCCCA"/>
<path d="M41.6606 127.226C40.5182 128.368 36.0332 139.2 32.2252 149.058C29.3058 156.547 26.7248 163.402 26.2594 164.967C25.9632 166.025 25.0324 168.014 23.89 170.256C20.5897 167.083 15.5547 162.767 12.1698 159.678C21.0551 147.958 32.0137 125.914 38.2334 120.964C38.5296 120.71 38.7411 120.456 38.995 120.245L39.5027 121.556L40.3489 123.756L41.6606 127.226Z" fill="#FFC53E"/>
<path d="M5.61164 169.41C4.85005 169.664 4.08845 169.96 3.32685 170.214C2.56525 170.51 1.2113 171.272 0.492015 170.552C0.238149 170.299 -0.142649 170.679 0.111217 170.933C0.66126 171.441 1.29592 171.441 2.01521 171.272C3.28454 170.933 4.55387 170.383 5.78089 169.918C6.07706 169.833 5.95013 169.283 5.61164 169.41Z" fill="#FF5852"/>
<path d="M6.88117 172.075C5.18873 172.668 2.26928 174.36 0.576837 173.175C0.28066 172.964 0.0267946 173.429 0.322971 173.641C2.26928 174.995 5.14642 173.26 7.05042 172.583C7.34659 172.498 7.21966 171.991 6.88117 172.075Z" fill="#FF5852"/>
<path d="M9.25041 174.615C8.0657 175.165 2.52297 177.873 1.59212 176.096C1.42288 175.8 0.957458 176.054 1.1267 176.35C1.76137 177.535 3.0307 177.238 4.17309 176.984C6.03478 176.561 7.81184 175.884 9.50428 175.08C9.84276 174.911 9.54659 174.446 9.25041 174.615Z" fill="#FF5852"/>
<path d="M12.9313 175.629C11.5774 176.517 10.1811 177.321 8.70024 177.998C7.85402 178.379 3.49599 180.495 2.73439 179.225C2.56515 178.929 2.09973 179.183 2.26898 179.479C3.15751 181.045 5.73847 179.691 6.96549 179.268C9.16566 178.464 11.2389 177.364 13.1852 176.052C13.4814 175.925 13.2275 175.46 12.9313 175.629Z" fill="#FF5852"/>
<path d="M35.6102 134.122C34.5947 138.354 33.5792 142.585 32.5215 146.773C32.4368 147.112 32.9446 147.239 33.0292 146.9L36.1179 134.249C36.2025 133.911 35.6948 133.784 35.6102 134.122Z" fill="white"/>
<path d="M40.9413 114.366C40.7297 114.451 39.2912 119.317 38.7411 121.263C38.7411 121.305 38.7834 121.305 38.7834 121.348C38.9527 121.601 39.1642 121.813 39.3335 122.067C40.6874 122.109 43.2684 122.109 43.3107 121.898C43.353 121.601 46.5686 113.393 46.5686 113.393L40.9413 114.366Z" fill="#FFCCCA"/>
<path d="M46.5686 113.392C44.0723 116.227 40.1797 115.169 38.2757 112.588C37.9372 112.123 37.641 111.573 37.4294 111.023C36.8371 109.288 37.0909 107.257 38.8257 105.311C40.1373 103.83 41.8298 103.449 43.4376 103.83C44.0723 103.957 44.7069 104.253 45.257 104.591C47.9649 106.199 49.5304 109.965 46.5686 113.392Z" fill="#FFCCCA"/>
<path d="M44.8761 106.749L46.4839 109.288L47.711 108.103L44.8761 106.749Z" fill="#FF5852"/>
<path d="M43.4799 107.257L43.6915 107.595C43.8607 107.891 44.2838 107.553 44.1146 107.257L43.903 106.918C43.7338 106.622 43.3107 106.96 43.4799 107.257Z" fill="#0D0F44"/>
<path d="M45.1724 105.65L45.3839 105.988C45.5532 106.284 45.9763 105.946 45.807 105.65L45.5955 105.311C45.4262 105.015 45.0031 105.354 45.1724 105.65Z" fill="#0D0F44"/>
<path d="M41.449 111.784C41.1528 111.699 40.899 111.615 40.6028 111.53C40.2643 111.446 40.0527 111.911 40.3912 112.038C40.6874 112.123 40.9413 112.207 41.2374 112.292C41.5336 112.376 41.7875 111.911 41.449 111.784Z" fill="#FF5852"/>
<path d="M43.3532 105.438C43.0993 105.903 42.2954 107.299 41.8723 108.611C41.6184 109.457 40.6453 109.542 40.2645 109.753C38.0643 110.896 38.8682 113.858 41.4915 113.858C41.83 114.196 42.1685 115.719 39.8413 115.677C36.3719 114.619 35.2718 109.288 38.8259 105.268C39.3336 104.676 39.926 104.253 40.5183 103.999C40.476 103.745 40.5183 103.449 40.6453 103.195C40.8145 102.941 41.0261 102.814 41.2376 102.73C41.4069 102.434 41.6184 102.18 41.8723 101.968C42.5493 101.46 43.4378 101.587 43.9032 102.349C44.5379 103.364 43.8609 104.549 43.3532 105.438Z" fill="black"/>
<path d="M45.1723 122.405L44.6646 123.421L42.8452 127.102L41.6182 125.452L40.3489 123.759L38.9103 121.855L38.191 120.882C38.4449 120.586 38.6987 120.374 38.9526 120.163L40.9412 119.867C42.4221 120.332 43.8184 121.221 45.1723 122.405Z" fill="#FFCCCA"/>
<path d="M174.137 48.8589V50.1283V50.5514V53.5131V54.3594L150.358 101.282H73.8598H69.4175C69.4175 100.859 73.8598 93.5816 73.9021 93.2008L78.4294 84.1886L96.9616 47.1665H173.926L174.137 48.8589Z" fill="white"/>
<path d="M172.571 50.3821C158.566 57.0249 142.827 64.5563 128.103 71.5799C127.891 71.6645 127.679 71.7915 127.468 71.8761C124.125 73.4839 120.783 75.0494 117.609 76.5726C117.398 76.6572 117.186 76.7842 116.975 76.8688C116.848 76.6995 116.721 76.488 116.594 76.3187C115.282 74.3724 113.928 72.4261 112.574 70.3952C112.447 70.226 112.321 70.0144 112.194 69.8452C107.412 62.8215 102.462 55.5441 97.8079 48.732C97.554 48.3512 98.1464 48.0127 98.4002 48.3935C103.012 55.1633 107.962 62.4407 112.744 69.4644C112.871 69.6336 112.998 69.8452 113.124 70.0144C114.521 72.0453 115.875 74.034 117.229 76.0226C120.444 74.4994 123.702 72.9339 127.045 71.3261C127.256 71.2414 127.468 71.1568 127.679 71.0299C142.446 64.0062 158.186 56.4749 172.191 49.7898C172.614 49.6205 172.952 50.2129 172.571 50.3821Z" fill="#3E53FF"/>
<path d="M113.125 70.0144L112.575 70.3952L73.86 98.6589V97.8127L112.194 69.8452L112.744 69.4644C112.871 69.6336 112.998 69.8028 113.125 70.0144Z" fill="#3E53FF"/>
<path d="M150.612 100.901L150.4 101.324H150.062C142.53 91.5083 134.999 81.6922 127.468 71.876C127.341 71.7068 127.172 71.4952 127.045 71.326C127.256 71.2413 127.468 71.1567 127.679 71.0298C127.806 71.199 127.975 71.4106 128.102 71.5798C135.591 81.3537 143.08 91.1275 150.612 100.901Z" fill="#3E53FF"/>
<path d="M137.115 112.494H131.233C129.795 112.494 128.61 111.183 128.61 109.575V92.3965C128.61 90.7887 129.795 89.4771 131.233 89.4771H135.464C136.903 89.4771 138.088 90.7887 138.088 92.3965V106.19C138.088 107.798 136.903 109.109 135.464 109.109H133.603C132.164 109.109 130.979 107.798 130.979 106.19V93.7928C130.979 93.6235 131.149 93.4543 131.318 93.4543C131.487 93.4543 131.656 93.6235 131.656 93.7928V106.19C131.656 107.417 132.545 108.432 133.603 108.432H135.464C136.565 108.432 137.411 107.417 137.411 106.19V92.3965C137.411 91.1695 136.522 90.154 135.464 90.154H131.233C130.133 90.154 129.287 91.1695 129.287 92.3965V109.575C129.287 110.802 130.176 111.817 131.233 111.817H137.115C137.284 111.817 137.453 111.986 137.453 112.156C137.453 112.325 137.284 112.494 137.115 112.494Z" fill="#FF5852"/>
<path d="M76.1873 104.287C80.1645 97.7707 81.9416 95.3102 83.2109 96.0295C84.4803 96.7488 79.2337 106.903 79.2337 106.903L76.1873 104.287Z" fill="#FFCCCA"/>
<defs>
<linearGradient id="paint0_linear" x1="68.9945" y1="179.724" x2="9.94896" y2="179.724" gradientUnits="userSpaceOnUse">
<stop stop-color="#3E53FF"/>
<stop offset="1" stop-color="#91A1FF"/>
</linearGradient>
</defs>
</svg>
